<?xml version="1.0" encoding="UTF-8"?>
<svg xmlns="http://www.w3.org/2000/svg" xmlns:xlink="http://www.w3.org/1999/xlink" viewBox="0 0 250 250" width="250px" height="250px">
<g id="surface136549012">
<path style=" stroke:none;fill-rule:nonzero;fill:rgb(26.274511%,7.843138%,34.117648%);fill-opacity:1;" d="M 128.847656 25.117188 C 127.886719 25.039062 126.921875 25.050781 125.96875 25.15625 C 122.140625 25.570312 118.464844 27.433594 115.890625 30.632812 C 110.734375 37.046875 111.769531 46.574219 118.175781 51.726562 L 134.6875 65 L 49.804688 65 C 41.578125 65 34.804688 71.773438 34.804688 80 C 34.804688 88.226562 41.578125 95 49.804688 95 L 86.984375 95 L 15.78125 152.550781 C 9.140625 157.917969 8.089844 167.808594 13.457031 174.453125 C 18.824219 181.09375 28.71875 182.144531 35.363281 176.777344 L 70.34375 148.496094 C 73.136719 188.585938 110.003906 220 154.804688 220 C 201.394531 220 239.804688 186.132812 239.804688 143.75 C 239.804688 116.816406 224.144531 93.265625 200.9375 79.777344 L 136.984375 28.347656 C 136.980469 28.347656 136.976562 28.347656 136.972656 28.347656 C 134.570312 26.417969 131.730469 25.351562 128.847656 25.117188 Z M 127.03125 35.039062 C 128.292969 34.902344 129.613281 35.257812 130.714844 36.140625 L 194.902344 87.753906 C 195.105469 87.917969 195.320312 88.0625 195.546875 88.191406 C 216.300781 100.101562 229.804688 120.542969 229.804688 143.75 C 229.804688 180.066406 196.582031 210 154.804688 210 C 113.027344 210 79.804688 180.066406 79.804688 143.75 C 79.804688 142.15625 79.9375 140.46875 80.097656 138.644531 C 80.273438 136.644531 79.238281 134.734375 77.464844 133.792969 C 75.695312 132.847656 73.53125 133.054688 71.972656 134.316406 L 29.070312 168.996094 C 26.628906 170.960938 23.210938 170.601562 21.238281 168.164062 C 19.265625 165.71875 19.632812 162.304688 22.070312 160.332031 L 104.265625 93.886719 C 105.914062 92.554688 106.542969 90.328125 105.835938 88.332031 C 105.128906 86.335938 103.242188 85 101.121094 85 L 49.804688 85 C 46.980469 85 44.804688 82.824219 44.804688 80 C 44.804688 77.175781 46.980469 75 49.804688 75 L 148.886719 75 C 151.007812 75 152.898438 73.660156 153.601562 71.660156 C 154.308594 69.660156 153.675781 67.433594 152.019531 66.101562 L 124.441406 43.9375 C 122.25 42.167969 121.914062 39.101562 123.683594 36.90625 C 124.566406 35.808594 125.769531 35.175781 127.03125 35.039062 Z M 154.804688 90 C 124.894531 90 99.804688 110.851562 99.804688 137.5 C 99.804688 164.148438 124.894531 185 154.804688 185 C 184.714844 185 209.804688 164.148438 209.804688 137.5 C 209.804688 110.851562 184.714844 90 154.804688 90 Z M 154.804688 100 C 180.121094 100 199.804688 117.210938 199.804688 137.5 C 199.804688 157.789062 180.121094 175 154.804688 175 C 129.488281 175 109.804688 157.789062 109.804688 137.5 C 109.804688 117.210938 129.488281 100 154.804688 100 Z M 154.804688 110 C 138.234375 110 124.804688 121.195312 124.804688 135 C 124.804688 148.804688 138.234375 160 154.804688 160 C 171.375 160 184.804688 148.804688 184.804688 135 C 184.804688 121.195312 171.375 110 154.804688 110 Z M 154.804688 120 C 165.644531 120 174.804688 126.871094 174.804688 135 C 174.804688 143.128906 165.644531 150 154.804688 150 C 143.964844 150 134.804688 143.128906 134.804688 135 C 134.804688 126.871094 143.964844 120 154.804688 120 Z M 154.804688 120 "/>
</g>
</svg>
