<?xml version="1.0" encoding="UTF-8"?>
<svg xmlns="http://www.w3.org/2000/svg" xmlns:xlink="http://www.w3.org/1999/xlink" viewBox="0 0 250 250" width="250px" height="250px">
<g id="surface136602814">
<path style=" stroke:none;fill-rule:nonzero;fill:rgb(26.274511%,7.843138%,34.117648%);fill-opacity:1;" d="M 125 10 C 121.425781 10 117.871094 10.898438 114.667969 12.695312 L 30.449219 60.019531 C 24.042969 63.632812 20 70.371094 20 77.675781 L 20 172.324219 C 20 179.648438 24.042969 186.386719 30.449219 190 L 114.667969 237.304688 C 121.074219 240.917969 128.925781 240.917969 135.332031 237.304688 L 219.550781 190 C 225.976562 186.386719 230 179.628906 230 172.324219 L 230 77.675781 C 230 70.371094 225.957031 63.632812 219.550781 60.019531 L 135.332031 12.695312 C 132.128906 10.898438 128.574219 10 125 10 Z M 125 20 C 126.875 20 128.769531 20.46875 130.449219 21.40625 L 214.667969 68.730469 C 218.007812 70.625 220 74.023438 220 77.675781 L 220 172.324219 C 220 175.976562 218.007812 179.375 214.648438 181.269531 L 130.449219 228.59375 C 127.089844 230.46875 122.910156 230.46875 119.550781 228.59375 L 35.351562 181.269531 C 31.992188 179.375 30 175.996094 30 172.324219 L 30 77.675781 C 30 74.023438 31.992188 70.625 35.351562 68.730469 L 119.550781 21.40625 C 121.230469 20.46875 123.125 20 125 20 Z M 125 60 C 89.199219 60 60 89.199219 60 125 C 60 160.800781 89.199219 190 125 190 C 145.449219 190 164.433594 180.46875 176.699219 164.316406 L 180.117188 159.804688 L 149.84375 142.265625 L 147.109375 145.234375 C 141.464844 151.40625 133.457031 155 125 155 C 108.417969 155 95 141.582031 95 125 C 95 108.417969 108.417969 95 125 95 C 133.457031 95 141.464844 98.59375 147.109375 104.765625 L 149.84375 107.734375 L 180.117188 90.195312 L 176.699219 85.683594 C 164.433594 69.53125 145.449219 60 125 60 Z M 125 70 C 140.371094 70 154.433594 76.582031 164.726562 87.558594 L 151.015625 95.488281 C 143.789062 89.160156 134.804688 85 125 85 C 102.988281 85 85 102.988281 85 125 C 85 147.011719 102.988281 165 125 165 C 134.804688 165 143.789062 160.839844 151.015625 154.511719 L 164.726562 162.441406 C 154.433594 173.417969 140.371094 180 125 180 C 94.628906 180 70 155.371094 70 125 C 70 94.628906 94.628906 70 125 70 Z M 175 100 L 175 110 L 165 110 L 165 120 L 175 120 L 175 130 L 165 130 L 165 140 L 175 140 L 175 150 L 185 150 L 185 140 L 195 140 L 195 150 L 205 150 L 205 140 L 215 140 L 215 130 L 205 130 L 205 120 L 215 120 L 215 110 L 205 110 L 205 100 L 195 100 L 195 110 L 185 110 L 185 100 Z M 185 120 L 195 120 L 195 130 L 185 130 Z M 185 120 "/>
</g>
</svg>
