<?xml version="1.0" encoding="UTF-8"?>
<svg xmlns="http://www.w3.org/2000/svg" xmlns:xlink="http://www.w3.org/1999/xlink" viewBox="0 0 250 250" width="250px" height="250px">
<g id="surface136429030">
<path style=" stroke:none;fill-rule:nonzero;fill:rgb(26.274511%,7.843138%,34.117648%);fill-opacity:1;" d="M 205.996094 113.496094 L 204.003906 110.507812 C 204.003906 88.007812 193.496094 78.496094 181.503906 71.503906 C 185 70.507812 189.003906 69.492188 190 65 C 196.503906 63.496094 197.5 60.507812 198.007812 57.5 C 199.492188 56.503906 205 53.496094 204.492188 48.007812 C 207.5 45.996094 209.492188 43.007812 208.496094 39.003906 C 211.992188 35.507812 212.5 32.5 211.503906 29.492188 C 215.507812 24.492188 213.496094 21.992188 211.992188 19.492188 C 215 14.003906 212.5 8.007812 204.003906 9.003906 C 200.507812 4.003906 193.496094 5 192.5 5 C 191.503906 3.496094 190 1.992188 185 2.5 C 181.503906 -0.507812 178.007812 0 174.492188 1.503906 C 170 -1.992188 166.992188 0.996094 163.496094 1.992188 C 158.007812 0 156.992188 2.5 154.003906 3.496094 C 148.007812 1.992188 146.503906 5 143.496094 8.007812 L 140 8.007812 C 130.996094 13.496094 126.503906 24.003906 125 29.492188 C 123.496094 24.003906 119.003906 13.007812 110 8.007812 L 106.503906 8.007812 C 103.496094 5 101.992188 2.5 95.996094 3.496094 C 93.496094 2.5 91.992188 0 86.503906 1.992188 C 84.492188 1.503906 82.5 0 80 0 C 78.496094 0 77.5 0.507812 75.996094 1.503906 C 71.992188 0.507812 68.496094 0 65 2.5 C 60 1.992188 58.496094 3.007812 56.992188 5 C 55.996094 5 48.496094 4.003906 45.507812 9.003906 C 36.992188 8.007812 34.492188 14.003906 37.5 19.492188 C 35.996094 21.992188 34.003906 24.492188 38.007812 29.492188 C 36.992188 31.992188 37.5 35 40.996094 39.003906 C 40 43.007812 41.992188 45.507812 45 47.5 C 44.492188 53.007812 50 55.996094 51.503906 56.992188 C 51.992188 60 53.496094 63.007812 59.492188 64.492188 C 60.507812 69.003906 64.492188 70 68.007812 70.996094 C 55.996094 78.007812 45.507812 87.5 45.507812 110 L 43.496094 113.007812 C 30 121.992188 17.5 149.003906 36.992188 170.996094 C 38.496094 178.007812 40.507812 183.007812 42.5 188.496094 C 45.507812 210.507812 64.003906 220.996094 69.003906 221.992188 C 75.996094 227.5 84.003906 232.5 94.003906 236.503906 C 103.496094 246.503906 114.492188 250.507812 125 250.507812 L 125.507812 250.507812 C 135.996094 250.507812 146.503906 246.503906 156.503906 236.503906 C 166.992188 233.007812 174.492188 227.5 181.503906 221.992188 C 186.503906 220.996094 205 210.507812 208.007812 188.496094 C 210 183.007812 211.992188 178.007812 213.496094 170.996094 C 232.5 149.003906 220 121.992188 205.996094 113.496094 Z M 193.496094 109.492188 C 193.007812 118.496094 145.996094 77.5 154.003906 76.503906 C 175.996094 73.007812 194.003906 85.996094 193.496094 109.492188 Z M 141.992188 14.492188 C 142.5 16.503906 143.007812 18.007812 143.496094 18.007812 C 145.996094 15 148.007812 12.5 151.503906 9.492188 C 151.503906 10.996094 150.507812 13.007812 152.5 14.003906 C 154.492188 11.503906 156.503906 9.492188 160 7.5 C 158.496094 10 159.492188 10.996094 160.507812 11.992188 C 163.007812 10 165.507812 7.5 170 5.996094 C 169.003906 7.5 166.992188 9.003906 169.003906 10.996094 C 171.503906 9.492188 174.003906 8.007812 180 6.503906 C 178.496094 8.007812 175.996094 9.492188 177.5 10.996094 C 180.507812 10 184.003906 9.003906 188.007812 8.496094 C 185.996094 10 184.492188 11.503906 185.996094 13.007812 C 189.492188 11.992188 194.003906 10.507812 198.496094 11.503906 L 195.507812 14.492188 C 195.996094 15 203.007812 15 207.5 15 C 205.996094 17.5 204.003906 20 203.007812 24.003906 C 203.496094 24.492188 205.996094 24.003906 208.007812 24.003906 C 205.996094 29.003906 201.992188 30 200.996094 31.992188 C 202.5 33.007812 204.492188 33.007812 206.503906 31.992188 C 205 35.507812 201.503906 37.5 199.003906 40.507812 C 199.492188 40.996094 200.996094 41.503906 203.496094 40.996094 C 200.996094 43.496094 198.007812 45.996094 194.492188 48.496094 C 195 49.003906 197.5 49.003906 199.492188 49.492188 C 196.503906 52.5 191.992188 54.492188 188.496094 56.503906 C 190.507812 58.007812 191.992188 57.5 193.496094 57.5 C 190.996094 60 185.996094 60.996094 181.992188 62.5 C 183.007812 64.003906 183.496094 64.003906 185.507812 64.492188 C 180.996094 66.992188 174.492188 65.996094 172.5 66.992188 C 173.007812 68.496094 174.003906 69.003906 175.507812 70 C 168.007812 70.507812 148.007812 69.492188 144.003906 54.003906 C 151.503906 45.507812 165.507812 35.507812 189.003906 23.496094 C 170.507812 30 154.003906 38.007812 140 49.492188 C 123.007812 41.503906 134.003906 21.992188 141.992188 14.492188 Z M 125 70 C 136.503906 70 150.996094 78.496094 150.996094 86.992188 C 150.996094 94.492188 140.996094 100 125 100 C 109.492188 100 99.003906 92.5 99.003906 85.507812 C 99.003906 80 111.992188 70 125 70 Z M 65.996094 64.003906 C 68.007812 63.496094 68.496094 63.496094 69.492188 61.992188 C 65 60.507812 60.507812 59.492188 58.007812 56.992188 C 59.492188 56.992188 60.996094 57.5 63.007812 55.996094 C 59.003906 54.003906 55 52.5 51.992188 49.003906 C 54.003906 49.003906 55.996094 49.003906 56.992188 48.007812 C 53.496094 45.996094 50.507812 43.496094 48.007812 40.507812 C 50.996094 40.996094 51.992188 40.507812 52.5 40 C 50 37.5 46.503906 35 45 31.503906 C 46.992188 31.992188 49.003906 32.5 50.507812 31.503906 C 48.496094 30 44.492188 29.003906 42.5 24.003906 C 44.492188 24.003906 46.992188 24.492188 47.5 24.003906 C 46.503906 20 44.492188 17.5 43.007812 15 C 47.5 15 55 15 54.492188 14.492188 L 51.503906 11.503906 C 55.996094 10.507812 60.996094 11.503906 64.003906 13.007812 C 65.507812 11.992188 64.003906 10.507812 61.992188 8.496094 C 65.996094 9.003906 69.492188 10 72.5 10.996094 C 74.003906 9.492188 71.503906 8.007812 70 6.503906 C 75.996094 7.5 78.496094 9.003906 80.996094 10.996094 C 83.007812 9.003906 80.996094 7.5 80 5.996094 C 85 8.007812 87.5 10 90 12.5 C 90.996094 11.503906 91.992188 10.507812 90.507812 8.007812 C 93.496094 10 95.996094 11.992188 98.007812 14.492188 C 100 13.007812 99.003906 11.503906 99.003906 10 C 102.5 12.5 104.492188 15.507812 106.992188 18.496094 C 107.5 18.007812 108.007812 16.992188 108.496094 15 C 116.503906 23.007812 128.007812 42.5 111.503906 50 C 97.5 38.496094 80.996094 30 62.5 24.003906 C 85.996094 35.996094 100 45.996094 107.5 54.492188 C 103.496094 70 83.496094 70.507812 75.996094 70.507812 C 77.5 70 79.003906 69.003906 79.003906 67.5 C 77.5 65.507812 70.507812 66.503906 65.996094 64.003906 Z M 93.496094 75.996094 C 101.503906 77.5 54.492188 118.496094 54.003906 109.003906 C 53.007812 85 71.503906 71.992188 93.496094 75.996094 Z M 44.003906 166.992188 C 32.5 158.007812 29.003906 130.996094 50 119.003906 C 63.007812 115.507812 54.492188 171.503906 44.003906 166.992188 Z M 88.496094 215 C 81.992188 219.003906 66.503906 217.5 55.507812 201.503906 C 48.007812 188.007812 49.003906 174.492188 54.003906 170.507812 C 61.992188 165.507812 74.003906 171.992188 83.496094 183.007812 C 91.503906 192.5 95.507812 210 88.496094 215 Z M 75.996094 156.503906 C 64.003906 149.003906 61.992188 131.503906 71.503906 117.5 C 80.507812 103.496094 97.5 98.496094 109.492188 106.503906 C 121.503906 114.003906 123.496094 131.503906 114.003906 145.507812 C 104.492188 159.003906 87.5 164.003906 75.996094 156.503906 Z M 125 241.992188 C 110.996094 242.5 96.992188 230.507812 96.992188 225.996094 C 96.992188 220 114.003906 215 125.507812 215.507812 C 136.992188 215 151.992188 219.003906 152.5 224.492188 C 152.5 230.507812 138.496094 242.5 125 241.992188 Z M 154.003906 180.996094 C 154.003906 195.507812 141.503906 207.5 125.507812 207.5 C 109.492188 207.5 96.992188 195.996094 96.992188 181.503906 C 96.992188 181.503906 96.992188 181.503906 96.992188 180.996094 C 96.992188 166.503906 109.492188 154.492188 125.507812 154.492188 C 140.996094 155 154.003906 166.503906 154.003906 180.996094 Z M 135.996094 144.003906 C 126.992188 130 129.003906 112.5 140.507812 105 C 152.5 97.5 169.492188 102.5 178.496094 115.996094 C 187.5 130 185.507812 147.5 174.003906 155 C 162.5 163.007812 145.507812 158.007812 135.996094 144.003906 Z M 194.003906 201.992188 C 181.992188 219.003906 165.507812 219.492188 159.003906 215 C 152.5 209.003906 157.5 190 166.503906 180 C 176.503906 168.496094 187.5 160.996094 195 166.992188 C 199.492188 171.992188 202.5 190.507812 194.003906 201.992188 Z M 203.496094 165.996094 C 193.007812 170.507812 184.492188 114.492188 197.5 118.007812 C 218.496094 130.507812 214.492188 156.992188 203.496094 165.996094 Z M 203.496094 165.996094 "/>
</g>
</svg>
