<?xml version="1.0" encoding="UTF-8"?>
<svg xmlns="http://www.w3.org/2000/svg" xmlns:xlink="http://www.w3.org/1999/xlink" viewBox="0 0 250 250" width="250px" height="250px">
<g id="surface136581544">
<path style=" stroke:none;fill-rule:nonzero;fill:rgb(26.274511%,7.843138%,34.117648%);fill-opacity:1;" d="M 55 20 C 44.648438 20 35.859375 27.96875 35 38.28125 L 34.375 45.3125 C 25.566406 46.953125 18.652344 54.394531 17.8125 63.59375 L 5.15625 201.5625 C 4.003906 214.0625 13.847656 225 26.40625 225 L 223.59375 225 C 236.152344 225 245.996094 214.0625 244.84375 201.5625 L 232.1875 63.59375 C 231.347656 54.394531 224.433594 46.953125 215.625 45.3125 L 215 38.28125 C 214.140625 27.96875 205.351562 20 195 20 Z M 55 30 L 195 30 C 200.253906 30 204.570312 33.984375 205 39.21875 L 215 159.21875 C 215.019531 159.53125 215 159.84375 215 160.15625 C 215 160.566406 215.058594 161.015625 215 161.40625 C 214.375 166.289062 210.175781 170 205 170 L 45 170 C 39.824219 170 35.625 166.289062 35 161.40625 C 34.941406 161.015625 35 160.566406 35 160.15625 C 35 159.84375 34.980469 159.53125 35 159.21875 L 45 39.21875 C 45.429688 33.984375 49.746094 30 55 30 Z M 33.4375 56.09375 L 25 158.28125 C 24.941406 158.925781 25 159.53125 25 160.15625 L 25 185 C 25 195.996094 34.003906 205 45 205 L 205 205 C 215.996094 205 225 195.996094 225 185 L 225 160.15625 C 225 159.53125 225.058594 158.925781 225 158.28125 L 216.5625 56.09375 C 219.746094 57.617188 221.992188 60.625 222.34375 64.375 L 235 202.5 C 235.625 209.296875 230.429688 215 223.59375 215 L 26.40625 215 C 19.570312 215 14.375 209.296875 15 202.5 L 27.65625 64.375 C 28.007812 60.625 30.253906 57.617188 33.4375 56.09375 Z M 124.53125 62.1875 C 111.308594 62.1875 91.5625 67.304688 91.5625 86.09375 C 91.5625 109.023438 137.65625 103.457031 137.65625 118.125 C 137.65625 123.632812 130 127.34375 122.65625 127.34375 C 112.304688 127.34375 104.160156 121.40625 98.4375 121.40625 C 93.90625 121.40625 86.40625 123.007812 86.40625 130.9375 C 86.40625 143.417969 116.601562 145.15625 127.65625 145.15625 C 134.257812 145.15625 161.40625 141.445312 161.40625 117.34375 C 161.40625 88.261719 114.375 94.824219 114.375 83.59375 C 114.375 79.238281 117.714844 76.09375 124.6875 76.09375 C 131.660156 76.09375 136.875 80.46875 144.0625 80.46875 C 148.105469 80.46875 153.28125 78.90625 153.28125 73.4375 C 153.28125 64.648438 134.453125 62.1875 124.53125 62.1875 Z M 35 177.1875 C 37.96875 178.925781 41.328125 180 45 180 L 205 180 C 208.671875 180 212.03125 178.925781 215 177.1875 L 215 185 C 215 190.585938 210.585938 195 205 195 L 45 195 C 39.414062 195 35 190.585938 35 185 Z M 35 177.1875 "/>
</g>
</svg>
