<?xml version="1.0" encoding="UTF-8"?>
<svg xmlns="http://www.w3.org/2000/svg" xmlns:xlink="http://www.w3.org/1999/xlink" viewBox="0 0 250 250" width="250px" height="250px">
<g id="surface136570210">
<path style=" stroke:none;fill-rule:nonzero;fill:rgb(26.274511%,7.843138%,34.117648%);fill-opacity:1;" d="M 105 70 C 90.488281 70 77.617188 77.382812 70.703125 93.300781 L 54.375 129.003906 L 34.746094 80.800781 L 34.707031 80.722656 C 30.644531 71.757812 19.941406 67.519531 10.664062 71.660156 C 1.289062 75.859375 -2.421875 86.953125 1.796875 95.917969 L 31.015625 161.796875 L 31.015625 161.816406 C 33.457031 167.128906 36.09375 171.582031 39.84375 174.882812 C 43.613281 178.183594 48.59375 180 54.101562 180 C 59.941406 180 65 178.007812 68.671875 174.628906 C 72.363281 171.25 74.765625 166.875 77.167969 161.894531 L 77.1875 161.855469 L 77.207031 161.777344 C 77.207031 161.777344 97.207031 117.1875 99.53125 112.089844 C 100.546875 109.863281 101.875 107.949219 103.222656 106.738281 C 104.589844 105.546875 105.800781 105 107.5 105 C 111.640625 105 115 108.359375 115 112.5 L 115 161.875 C 115 171.601562 122.695312 180 132.597656 180 C 142.519531 180 150 171.503906 150 161.875 L 150 112.5 C 150 108.359375 153.359375 105 157.5 105 C 161.640625 105 165 108.359375 165 112.5 L 165 162.5 C 165 172.109375 172.890625 180 182.5 180 C 192.109375 180 200 172.109375 200 162.5 L 200 112.5 C 200 108.359375 203.359375 105 207.5 105 C 211.640625 105 215 108.359375 215 112.5 L 215 162.5 C 215 172.109375 222.890625 180 232.5 180 C 242.109375 180 250 172.109375 250 162.5 L 250 106.796875 C 250 85.429688 232.480469 70 212.070312 70 C 195.996094 70 186.816406 77.519531 182.832031 81.210938 C 176.171875 74.648438 167.441406 70.019531 154.6875 70.019531 C 141.289062 70.019531 133.632812 77.050781 129.882812 81.015625 C 122.773438 74.335938 113.632812 70 105 70 Z M 18.125 79.941406 C 21.367188 79.785156 24.101562 81.601562 25.585938 84.84375 L 53.828125 154.21875 L 79.84375 97.34375 L 79.863281 97.285156 C 85.585938 84.160156 93.4375 80 105 80 C 111.582031 80 121.445312 84.277344 126.25 90.546875 L 130.175781 95.664062 L 134.160156 90.566406 C 134.160156 90.566406 142.8125 80.019531 154.6875 80.019531 C 167.519531 80.019531 173.671875 83.75 178.90625 90.546875 L 182.558594 95.3125 L 186.582031 90.859375 C 186.582031 90.859375 196.425781 80 212.070312 80 C 227.617188 80 240 90.761719 240 106.796875 L 240 162.5 C 240 166.640625 236.640625 170 232.5 170 C 228.359375 170 225 166.640625 225 162.5 L 225 112.5 C 225 102.890625 217.109375 95 207.5 95 C 197.890625 95 190 102.890625 190 112.5 L 190 162.5 C 190 166.640625 186.640625 170 182.5 170 C 178.359375 170 175 166.640625 175 162.5 L 175 112.5 C 175 102.890625 167.109375 95 157.5 95 C 147.890625 95 140 102.890625 140 112.5 L 140 161.875 C 140 166.699219 137.03125 170 132.597656 170 C 128.183594 170 125 166.582031 125 161.875 L 125 112.5 C 125 102.890625 117.109375 95 107.5 95 C 103.203125 95 99.375 96.796875 96.582031 99.277344 C 93.808594 101.738281 91.894531 104.804688 90.46875 107.910156 C 87.929688 113.4375 68.203125 157.441406 68.125 157.597656 C 65.917969 162.167969 63.925781 165.429688 61.914062 167.265625 C 59.902344 169.140625 57.988281 170 54.101562 170 C 50.507812 170 48.515625 169.179688 46.445312 167.363281 C 44.375 165.546875 42.265625 162.34375 40.117188 157.65625 L 10.859375 91.699219 L 10.859375 91.640625 C 8.789062 87.304688 10.195312 82.832031 14.765625 80.800781 C 15.917969 80.273438 17.050781 80 18.125 79.941406 Z M 18.125 79.941406 "/>
</g>
</svg>
