<?xml version="1.0" encoding="UTF-8"?>
<svg xmlns="http://www.w3.org/2000/svg" xmlns:xlink="http://www.w3.org/1999/xlink" viewBox="0 0 250 250" width="250px" height="250px">
<g id="surface136442863">
<path style=" stroke:none;fill-rule:nonzero;fill:rgb(26.274511%,7.843138%,34.117648%);fill-opacity:1;" d="M 239.597656 42.050781 C 239.097656 42.050781 238.546875 42.152344 237.996094 42.355469 L 173.347656 63.898438 C 171.347656 64.546875 170 66.40625 169.949219 68.554688 C 169 107.453125 152.796875 141.402344 131.84375 165.703125 C 134.195312 168.203125 136.699219 170.601562 139.199219 172.804688 C 161.050781 147.753906 178.003906 112.996094 179.851562 72.246094 L 233.496094 54.40625 C 225.796875 93.554688 190.203125 145.695312 144.453125 177.195312 C 147.253906 179.496094 150.097656 181.550781 152.949219 183.347656 C 203.097656 147.597656 240.398438 89 244.601562 47.546875 C 244.898438 44.5 242.449219 42.050781 239.601562 42.050781 Z M 10.390625 42.070312 C 7.550781 42.070312 5.085938 44.503906 5.390625 47.539062 C 11.710938 109.890625 92.894531 211.011719 179.871094 214.882812 C 179.941406 214.886719 180.019531 214.890625 180.089844 214.890625 C 182.796875 214.890625 185 212.613281 185 209.871094 L 185 209.707031 C 185 207.195312 183.160156 205.019531 180.664062 204.765625 C 141.09375 200.777344 81.855469 143.941406 80.046875 68.523438 C 80 66.414062 78.660156 64.546875 76.660156 63.875 L 11.992188 42.332031 C 11.457031 42.152344 10.914062 42.070312 10.390625 42.070312 Z M 16.523438 54.382812 L 70.167969 72.253906 C 72.535156 124.429688 99.734375 166.886719 130.214844 191.542969 C 72.953125 164.09375 25.535156 100.324219 16.523438 54.382812 Z M 96.75 195.253906 C 87.199219 200.652344 77.84375 203.953125 69.34375 204.804688 C 66.84375 205.054688 65 207.199219 65 209.699219 L 65 209.855469 C 65 212.605469 67.203125 214.902344 69.902344 214.902344 L 70.148438 214.902344 C 84.796875 214.253906 99.300781 210.804688 113.300781 205.253906 C 107.652344 202.253906 102.148438 198.855469 96.75 195.253906 Z M 96.75 195.253906 "/>
</g>
</svg>
