<?xml version="1.0" encoding="UTF-8"?>
<svg xmlns="http://www.w3.org/2000/svg" xmlns:xlink="http://www.w3.org/1999/xlink" viewBox="0 0 256 256" width="256px" height="256px">
<g id="surface136738626">
<path style=" stroke:none;fill-rule:nonzero;fill:rgb(37.64706%,11.372549%,49.019608%);fill-opacity:1;" d="M 52.671875 72.078125 C 41.792969 72.078125 30.746094 76.320312 28.90625 78.640625 C 28.425781 79.601562 27.3125 87.359375 29.953125 87.359375 C 30.832031 87.359375 31.238281 87.511719 33.796875 86.3125 C 43.398438 82.550781 49.480469 82.640625 50.359375 82.640625 C 61.160156 81.601562 67.398438 88.964844 66.4375 98.484375 L 66.4375 104.078125 C 57.316406 101.917969 52.105469 101.84375 49.546875 101.84375 C 36.265625 101.042969 24 108.046875 24 123.4375 C 24 140.316406 39.066406 143.925781 44.90625 143.6875 C 53.625 143.765625 61.949219 139.847656 67.46875 133.046875 C 71.867188 142.886719 74.671875 142.234375 74.75 142.234375 C 75.550781 142.234375 76.1875 141.914062 76.828125 141.515625 L 81.390625 138.3125 C 82.191406 137.832031 82.828125 137.039062 82.90625 136.078125 C 82.828125 133.757812 78.664062 130.15625 78.984375 122.078125 L 78.984375 97.125 C 79.464844 90.246094 77.234375 83.511719 72.59375 78.3125 C 67.074219 73.671875 59.792969 71.4375 52.671875 72.078125 Z M 207.65625 72.078125 C 191.65625 72.078125 182.464844 82.074219 182.703125 92.234375 C 182.703125 106.15625 196.773438 110.566406 198.375 111.046875 C 211.894531 115.285156 213.738281 115.441406 217.5 118.640625 C 220.699219 121.921875 220.296875 128.324219 215.578125 131.125 C 214.21875 131.925781 208.371094 135.4375 195.171875 132.71875 C 190.773438 131.839844 188.460938 130.800781 184.859375 129.28125 C 183.898438 128.960938 181.65625 128.398438 181.65625 131.359375 L 181.65625 135.28125 C 181.65625 137.121094 182.773438 138.792969 184.453125 139.59375 C 192.851562 143.832031 202.933594 144 205.09375 144 C 205.414062 144 223.808594 144.007812 229.96875 131.59375 C 231.242188 129.035156 234.535156 119.6875 228.375 111.6875 C 223.253906 105.6875 218.855469 105.046875 205.734375 101.046875 C 204.613281 100.726562 194.9375 98.238281 195.015625 91.4375 C 194.535156 82.71875 206.378906 82.246094 208.859375 82.40625 C 218.859375 82.246094 223.8125 85.996094 226.53125 86.234375 C 227.730469 86.234375 228.296875 85.523438 228.296875 83.921875 L 228.296875 80.234375 C 228.378906 79.355469 228.058594 78.484375 227.578125 77.765625 C 224.378906 73.605469 212.136719 72.078125 207.65625 72.078125 Z M 86.21875 74.078125 C 85.339844 74.238281 84.699219 75.121094 84.859375 76 C 85.019531 77.039062 85.179688 78.085938 85.578125 79.125 L 103.5 138.234375 C 103.898438 140.15625 105.167969 142.242188 107.96875 141.921875 L 114.53125 141.921875 C 118.53125 142.320312 119.089844 138.476562 119.171875 138.078125 L 130.9375 88.796875 L 142.859375 138.15625 C 142.9375 138.554688 143.5 142.398438 147.421875 142 L 154.0625 142 C 156.941406 142.320312 158.304688 140.234375 158.703125 138.3125 C 178.863281 73.433594 177.496094 77.84375 177.65625 77.203125 C 177.976562 73.84375 176.054688 74.078125 175.734375 74.15625 L 168.609375 74.15625 C 165.007812 73.757812 164.300781 77.042969 164.140625 77.84375 L 150.859375 129.125 L 138.859375 77.84375 C 138.300781 73.921875 135.097656 74.078125 134.296875 74.15625 L 128.140625 74.15625 C 124.621094 73.835938 123.738281 76.644531 123.5 77.84375 L 111.578125 128.40625 L 98.78125 77.84375 C 98.460938 76.242188 97.417969 73.757812 94.296875 74.078125 Z M 52.1875 111.125 C 57.949219 111.203125 62.917969 112.074219 66.359375 112.875 C 66.359375 116.875 66.503906 119.117188 65.625 122.71875 C 64.503906 126.558594 59.554688 133.527344 47.875 133.6875 C 41.15625 134.007812 36.757812 128.71875 37.15625 122.71875 C 36.757812 113.117188 46.667969 110.726562 52.1875 111.125 Z M 232.328125 160.015625 C 224.859375 160.121094 216.046875 161.792969 209.359375 166.484375 C 207.296875 167.917969 207.65625 169.90625 209.953125 169.640625 C 217.472656 168.738281 234.210938 166.707031 237.203125 170.53125 C 240.203125 174.355469 233.886719 190.132812 231.09375 197.1875 C 230.230469 199.292969 232.054688 200.164062 233.984375 198.5625 C 246.496094 188.082031 249.746094 166.113281 247.1875 162.953125 C 245.902344 161.371094 239.796875 159.910156 232.328125 160.015625 Z M 9.734375 168.015625 C 7.988281 168.253906 7.238281 170.464844 9.0625 172.21875 C 40.398438 201.609375 81.804688 216 127.78125 216 C 160.574219 216 198.640625 205.300781 224.921875 185.140625 C 229.265625 181.789062 225.566406 176.765625 221.109375 178.75 C 191.644531 191.75 159.644531 198.015625 130.515625 198.015625 C 87.347656 198.015625 45.558594 189.003906 11.75 168.53125 C 11.011719 168.082031 10.316406 167.9375 9.734375 168.015625 Z M 9.734375 168.015625 "/>
</g>
</svg>
