<?xml version="1.0" encoding="UTF-8"?>
<svg xmlns="http://www.w3.org/2000/svg" xmlns:xlink="http://www.w3.org/1999/xlink" viewBox="0 0 250 250" width="250px" height="250px">
<g id="surface136621317">
<path style=" stroke:none;fill-rule:nonzero;fill:rgb(37.64706%,11.372549%,49.019608%);fill-opacity:1;" d="M 100 45 L 100 70 L 50 70 L 50 95 L 25 95 L 25 120 L 5.625 120 C 3.242188 120.039062 1.230469 121.738281 0.78125 124.0625 C 0.78125 124.0625 0 128.339844 0 133.75 C 0 137.1875 0.351562 140.917969 0.9375 144.6875 C 0.644531 144.765625 0.253906 144.941406 0 145 L 0.9375 145 C 2.382812 154.042969 5.703125 163.671875 11.25 172.8125 C 11.269531 172.851562 11.230469 172.929688 11.25 172.96875 C 11.289062 173.066406 11.347656 173.183594 11.40625 173.28125 C 11.660156 174.472656 12.324219 175.527344 13.28125 176.25 C 13.378906 176.308594 13.496094 176.367188 13.59375 176.40625 C 15.136719 178.632812 16.757812 180.859375 18.59375 182.96875 C 31.972656 198.398438 53.691406 210 85 210 C 136.113281 210 179.335938 188.222656 203.75 145 L 249.21875 145 C 243.789062 143.632812 232.128906 141.796875 234.0625 134.6875 C 227.597656 142.167969 215.292969 143.105469 205.78125 141.40625 C 207.597656 137.96875 209.355469 134.472656 210.9375 130.78125 C 225.390625 130.410156 235.761719 125.761719 241.5625 120.15625 C 247.910156 114.023438 249.84375 107.1875 249.84375 107.1875 C 250.332031 105.273438 249.667969 103.261719 248.125 102.03125 C 248.125 102.03125 235.488281 92.8125 216.5625 95.9375 C 211.171875 78.261719 197.1875 69.6875 197.1875 69.6875 C 196.152344 69.082031 194.941406 68.847656 193.75 69.0625 C 192.949219 69.238281 192.1875 69.609375 191.5625 70.15625 C 191.5625 70.15625 188.222656 73.007812 185.46875 78.125 C 182.714844 83.242188 180.175781 91.035156 181.09375 101.09375 C 181.523438 105.800781 183.007812 110.273438 185.15625 114.53125 C 183.945312 115.273438 183.242188 115.898438 181.25 116.71875 C 177.109375 118.4375 171.074219 120 162.5 120 L 160 120 L 160 95 L 135 95 L 135 45 Z M 110 55 L 125 55 L 125 70 L 110 70 Z M 60 80 L 75 80 L 75 95 L 60 95 Z M 85 80 L 100 80 L 100 95 L 85 95 Z M 110 80 L 125 80 L 125 95 L 110 95 Z M 195.46875 81.09375 C 199.179688 83.847656 205.898438 89.609375 208.28125 102.1875 C 208.535156 103.574219 209.355469 104.765625 210.546875 105.507812 C 211.738281 106.25 213.183594 106.464844 214.53125 106.09375 C 227.285156 102.597656 234.179688 105.46875 237.96875 107.65625 C 237.246094 109.238281 237.363281 110.214844 234.53125 112.96875 C 229.980469 117.363281 222.265625 121.796875 207.8125 121.25 C 205.703125 121.171875 203.769531 122.421875 202.96875 124.375 C 200.976562 129.355469 198.671875 133.964844 196.25 138.4375 C 195.507812 138.007812 194.882812 137.5 194.375 137.03125 C 187.675781 146.738281 148.808594 143.027344 146.09375 135.46875 C 137.714844 145.3125 111.679688 145.3125 103.28125 135.46875 C 100.566406 143.027344 61.542969 146.738281 54.84375 137.03125 C 48.847656 142.65625 25.175781 146.113281 15.3125 134.6875 C 16.25 138.125 13.828125 140.351562 10.625 141.875 C 10.214844 139.023438 10 136.308594 10 133.75 C 10 131.601562 10.15625 131.40625 10.3125 130 L 162.5 130 C 172.34375 130 179.726562 128.125 185 125.9375 C 190.273438 123.75 194.023438 121.09375 194.53125 120.78125 C 195.742188 120.019531 196.5625 118.789062 196.796875 117.382812 C 197.03125 115.996094 196.660156 114.550781 195.78125 113.4375 C 193.007812 109.824219 191.5625 105.292969 191.09375 100.15625 C 190.371094 92.089844 192.265625 86.445312 194.21875 82.8125 C 194.882812 81.582031 194.921875 81.835938 195.46875 81.09375 Z M 35 105 L 50 105 L 50 120 L 35 120 Z M 60 105 L 75 105 L 75 120 L 60 120 Z M 85 105 L 100 105 L 100 120 L 85 120 Z M 110 105 L 125 105 L 125 120 L 110 120 Z M 135 105 L 150 105 L 150 120 L 135 120 Z M 11.25 145 L 192.5 145 C 169.550781 182.070312 131.445312 200 85 200 C 57.65625 200 39.921875 190.722656 28.28125 178.4375 C 50.46875 179.492188 67.65625 173.59375 67.65625 173.59375 C 70.410156 173.242188 72.382812 170.722656 72.03125 167.96875 C 71.679688 165.214844 69.160156 163.242188 66.40625 163.59375 C 66.132812 163.632812 65.878906 163.671875 65.625 163.75 C 65.195312 163.808594 64.785156 163.90625 64.375 164.0625 C 64.375 164.0625 43.925781 171.035156 20 167.65625 C 15.507812 160.253906 12.675781 152.324219 11.25 145 Z M 80 155 C 77.246094 155 75 157.246094 75 160 C 75 162.753906 77.246094 165 80 165 C 82.753906 165 85 162.753906 85 160 C 85 159.316406 84.941406 158.710938 84.6875 158.125 C 84.335938 158.75 83.574219 159.21875 82.8125 159.21875 C 81.679688 159.21875 80.78125 158.164062 80.78125 157.03125 C 80.78125 156.269531 81.269531 155.664062 81.875 155.3125 C 81.308594 155.097656 80.644531 155 80 155 Z M 80 155 "/>
</g>
</svg>
