<?xml version="1.0" encoding="UTF-8"?>
<svg xmlns="http://www.w3.org/2000/svg" xmlns:xlink="http://www.w3.org/1999/xlink" viewBox="0 0 250 250" width="250px" height="250px">
<g id="surface136651734">
<path style=" stroke:none;fill-rule:nonzero;fill:rgb(37.64706%,11.372549%,49.019608%);fill-opacity:1;" d="M 155.839844 40 C 153.496094 39.941406 151.445312 40.839844 150.390625 43.4375 C 148.59375 47.792969 153.066406 52.050781 154.667969 54.277344 C 155.78125 55.820312 157.226562 57.558594 158.027344 59.296875 C 158.554688 60.449219 158.632812 61.601562 159.082031 62.8125 C 160.195312 65.800781 161.972656 69.199219 163.398438 71.972656 C 164.121094 73.378906 164.921875 74.84375 165.839844 76.09375 C 166.40625 76.855469 167.363281 77.207031 167.519531 78.378906 C 166.582031 79.707031 166.523438 81.757812 165.996094 83.4375 C 163.613281 90.957031 164.511719 100.3125 167.96875 105.859375 C 169.042969 107.578125 171.5625 111.230469 175 109.84375 C 178.007812 108.613281 177.34375 104.804688 178.203125 101.425781 C 178.398438 100.683594 178.28125 100.117188 178.671875 99.609375 L 178.671875 99.765625 C 179.570312 101.601562 180.488281 103.4375 181.40625 105.253906 C 183.457031 108.535156 187.070312 111.953125 190.117188 114.277344 C 191.699219 115.46875 192.949219 117.539062 195 118.242188 L 195 118.085938 L 194.84375 118.085938 C 194.453125 117.460938 193.828125 117.207031 193.320312 116.71875 C 192.128906 115.546875 190.800781 114.082031 189.824219 112.734375 C 187.03125 108.964844 184.570312 104.824219 182.34375 100.527344 C 181.269531 98.476562 180.332031 96.210938 179.433594 94.121094 C 179.082031 93.300781 179.082031 92.089844 178.359375 91.660156 C 177.363281 93.203125 175.917969 94.433594 175.15625 96.25 C 173.945312 99.140625 173.769531 102.675781 173.320312 106.328125 C 173.046875 106.425781 173.164062 106.347656 173.027344 106.484375 C 170.898438 105.957031 170.136719 103.769531 169.355469 101.894531 C 167.363281 97.148438 166.972656 89.492188 168.75 84.042969 C 169.199219 82.617188 171.25 78.164062 170.429688 76.855469 C 170.039062 75.546875 168.710938 74.804688 167.988281 73.808594 C 167.070312 72.578125 166.171875 70.957031 165.546875 69.53125 C 163.90625 65.820312 162.363281 61.523438 160.625 57.773438 C 159.804688 55.976562 158.417969 54.179688 157.265625 52.578125 C 155.996094 50.820312 154.589844 49.53125 153.59375 47.382812 C 153.261719 46.640625 152.773438 45.429688 153.300781 44.648438 C 153.457031 44.121094 153.691406 43.90625 154.21875 43.730469 C 155.097656 43.046875 157.558594 43.945312 158.496094 44.335938 C 160.9375 45.351562 162.988281 46.328125 165.058594 47.695312 C 166.054688 48.359375 167.050781 49.628906 168.261719 50 L 169.628906 50 C 171.796875 50.488281 174.199219 50.136719 176.191406 50.761719 C 179.746094 51.835938 182.929688 53.515625 185.800781 55.332031 C 194.609375 60.878906 201.816406 68.789062 206.71875 78.222656 C 207.519531 79.746094 207.871094 81.210938 208.574219 82.8125 C 209.960938 86.054688 211.738281 89.414062 213.144531 92.578125 C 214.53125 95.761719 215.898438 98.945312 217.871094 101.582031 C 218.90625 102.96875 222.929688 103.730469 224.746094 104.492188 C 226.015625 105.039062 228.125 105.605469 229.316406 106.328125 C 231.640625 107.714844 233.867188 109.375 236.035156 110.917969 C 237.128906 111.679688 240.449219 113.339844 240.625 114.726562 C 235.253906 114.589844 231.152344 115.078125 227.65625 116.5625 C 226.660156 116.992188 225.058594 116.992188 224.902344 118.242188 C 225.429688 118.808594 225.527344 119.667969 225.957031 120.371094 C 226.796875 121.71875 228.203125 123.535156 229.472656 124.492188 C 230.859375 125.527344 232.265625 126.640625 233.75 127.558594 C 236.367188 129.140625 239.296875 130.058594 241.835938 131.660156 C 243.320312 132.617188 244.824219 133.808594 246.269531 134.863281 C 246.992188 135.410156 247.460938 136.230469 248.398438 136.5625 L 248.398438 136.40625 C 247.910156 135.78125 247.792969 134.921875 247.34375 134.277344 L 245.332031 132.265625 C 243.398438 129.707031 240.9375 127.441406 238.320312 125.566406 C 236.230469 124.0625 231.5625 122.03125 230.703125 119.609375 L 230.546875 119.453125 C 232.011719 119.296875 233.75 118.75 235.117188 118.378906 C 237.421875 117.773438 239.453125 117.929688 241.816406 117.324219 C 242.890625 117.011719 243.964844 116.699219 245.039062 116.40625 L 245.039062 115.78125 C 243.847656 114.570312 242.988281 112.929688 241.679688 111.816406 C 238.261719 108.90625 234.53125 105.996094 230.683594 103.574219 C 228.554688 102.226562 225.917969 101.347656 223.671875 100.214844 C 222.910156 99.824219 221.582031 99.628906 221.074219 98.984375 C 219.882812 97.480469 219.238281 95.566406 218.320312 93.808594 C 216.40625 90.117188 214.53125 86.09375 212.832031 82.207031 C 211.679688 79.570312 210.917969 76.953125 209.472656 74.570312 C 202.539062 63.183594 195.078125 56.289062 183.515625 49.53125 C 181.054688 48.085938 178.105469 47.539062 174.980469 46.796875 C 173.28125 46.679688 171.621094 46.582031 169.921875 46.484375 C 168.90625 46.054688 167.832031 44.804688 166.875 44.179688 C 164.472656 42.675781 159.746094 40.058594 155.839844 40 Z M 172.382812 56.5625 C 171.269531 56.542969 170.46875 56.699219 169.628906 56.875 L 169.628906 57.03125 L 169.785156 57.03125 C 170.3125 58.125 171.269531 58.828125 171.933594 59.765625 C 172.441406 60.839844 172.929688 61.914062 173.4375 62.988281 L 173.59375 62.832031 C 174.53125 62.167969 174.980469 61.09375 174.980469 59.472656 C 174.589844 59.082031 174.53125 58.574219 174.21875 58.105469 C 173.769531 57.460938 172.929688 57.109375 172.382812 56.5625 Z M 9.335938 119.980469 C 7.832031 120.039062 6.191406 120.332031 4.414062 120.898438 C 1.445312 121.796875 -0.0195312 123.574219 -0.0195312 127.1875 L -0.0195312 165 L 10 165 L 10 128.105469 L 23.886719 159.648438 C 25.605469 163.574219 27.949219 164.980469 32.539062 164.980469 C 37.148438 164.980469 39.394531 163.574219 41.113281 159.648438 L 55 128.90625 L 55 165 L 65 165 L 65 127.1875 C 65 123.574219 63.554688 121.796875 60.566406 120.898438 C 53.457031 118.652344 48.671875 120.585938 46.523438 125.449219 L 32.265625 157.519531 L 18.476562 125.449219 C 16.914062 121.796875 13.789062 119.804688 9.335938 119.980469 Z M 131.230469 120 C 127.285156 120 115 120.46875 115 130 L 115 136.171875 C 115 140.546875 118.847656 144.121094 127.1875 145 C 128.125 145.058594 129.0625 145.136719 130 145.136719 C 130 145.136719 139.726562 144.941406 140 145 C 145.625 145 145 149.375 145 150 L 145 155 C 145 155.683594 144.84375 160 139.941406 160 L 115 160 L 115 165 L 140.039062 165 C 143.320312 165 146.503906 164.316406 149.042969 163.125 C 153.261719 161.191406 155 158.574219 155 155.136719 L 155 147.988281 C 155 140.3125 145.46875 140 140 140 L 130 140 C 126.074219 140 125.46875 137.617188 125 135 L 125 130 C 125.46875 128.007812 126.347656 125.3125 129.824219 125 L 155 125 L 155 120 Z M 169.902344 120 C 162.519531 121.015625 159.921875 124.6875 159.921875 130 L 159.921875 155 C 159.921875 159.863281 162.636719 162.792969 168.222656 164.316406 C 170.097656 164.84375 171.796875 165.058594 173.398438 165.058594 L 184.53125 165 L 191.074219 165 L 196.640625 170 L 207.890625 170 L 200.15625 163.027344 C 203.789062 161.523438 204.921875 159.21875 204.921875 154.902344 L 204.921875 130 C 204.921875 124.6875 201.464844 121.015625 194.082031 120 Z M 210 120 L 210 154.785156 C 210 160.820312 213.417969 164.21875 222.460938 164.902344 C 223.300781 164.941406 224.160156 165 225 165 L 250 165 L 250 160 L 226.894531 160 C 221.738281 160 220 157.832031 220 154.746094 L 220 120 Z M 175.859375 125 L 188.730469 125 C 192.128906 125 194.414062 127.734375 194.921875 130 C 194.921875 130 195 153.28125 195 155 C 195 156.71875 194.042969 157.5 194.042969 157.5 L 191.328125 155 L 180 155 L 185.566406 160 L 175.859375 160 C 172.382812 160 170.429688 157.421875 169.921875 155 L 169.921875 130.507812 C 169.921875 127.851562 171.953125 125 175.859375 125 Z M 70 135 C 70.195312 135.195312 70 156.308594 70 156.71875 C 70.078125 161.09375 75.625 164.921875 84.316406 165 L 100 165 L 100 165.332031 C 100 166.269531 100.683594 169.394531 95 170 C 94.941406 170 70.058594 170 70 170 L 70 175 L 96.074219 175 C 100.488281 174.863281 110.058594 173.867188 110 166.210938 C 110 166.074219 110.039062 135 110 135 L 100 135 L 100 160 C 99.84375 160 87.617188 160.039062 85.15625 160 C 80.332031 159.921875 79.921875 157.167969 80 156.113281 L 80 135 Z M 70 135 "/>
</g>
</svg>
