<?xml version="1.0" encoding="UTF-8"?>
<svg xmlns="http://www.w3.org/2000/svg" xmlns:xlink="http://www.w3.org/1999/xlink" viewBox="0 0 250 250" width="250px" height="250px">
<g id="surface136415218">
<path style=" stroke:none;fill-rule:nonzero;fill:rgb(37.64706%,11.372549%,49.019608%);fill-opacity:1;" d="M 125 10 C 104.707031 10 90.9375 14.84375 82.1875 21.875 C 73.4375 28.90625 70 37.949219 70 45.46875 L 70 70 L 120 70 L 120 75 L 45.46875 75 C 36.328125 75 27.050781 78.964844 20.46875 87.34375 C 13.886719 95.722656 10 108.222656 10 125 C 10 141.777344 13.886719 154.277344 20.46875 162.65625 C 27.050781 171.035156 36.328125 175 45.46875 175 L 70 175 L 70 204.53125 C 70 212.050781 73.4375 221.09375 82.1875 228.125 C 90.9375 235.15625 104.707031 240 125 240 C 145.292969 240 159.0625 235.15625 167.8125 228.125 C 176.5625 221.09375 180 212.050781 180 204.53125 L 180 180 L 130 180 L 130 175 L 204.53125 175 C 213.671875 175 222.949219 171.035156 229.53125 162.65625 C 236.113281 154.277344 240 141.777344 240 125 C 240 108.222656 236.113281 95.722656 229.53125 87.34375 C 222.949219 78.964844 213.671875 75 204.53125 75 L 180 75 L 180 45.46875 C 180 37.753906 176.582031 28.691406 167.8125 21.71875 C 159.042969 14.746094 145.273438 10 125 10 Z M 125 20 C 143.730469 20 155.078125 24.375 161.5625 29.53125 C 168.046875 34.6875 170 40.683594 170 45.46875 L 170 105 C 170 113.28125 163.28125 120 155 120 L 95 120 C 84.707031 120 75.839844 126.347656 72.03125 135.3125 C 71.386719 136.796875 70.800781 138.378906 70.46875 140 C 70.136719 141.621094 70 143.28125 70 145 L 70 165 L 45.46875 165 C 39.121094 165 33.242188 162.519531 28.4375 156.40625 C 23.632812 150.292969 20 140.214844 20 125 C 20 109.785156 23.632812 99.707031 28.4375 93.59375 C 33.242188 87.480469 39.121094 85 45.46875 85 L 130 85 L 130 60 L 80 60 L 80 45.46875 C 80 40.996094 81.933594 34.902344 88.4375 29.6875 C 94.941406 24.472656 106.289062 20 125 20 Z M 100 35 C 94.492188 35 90 39.492188 90 45 C 90 50.507812 94.492188 55 100 55 C 105.507812 55 110 50.507812 110 45 C 110 39.492188 105.507812 35 100 35 Z M 180 85 L 204.53125 85 C 210.878906 85 216.757812 87.480469 221.5625 93.59375 C 226.367188 99.707031 230 109.785156 230 125 C 230 140.214844 226.367188 150.292969 221.5625 156.40625 C 216.757812 162.519531 210.878906 165 204.53125 165 L 120 165 L 120 190 L 170 190 L 170 204.53125 C 170 209.003906 168.066406 215.097656 161.5625 220.3125 C 155.058594 225.527344 143.710938 230 125 230 C 106.289062 230 94.941406 225.527344 88.4375 220.3125 C 81.933594 215.097656 80 209.003906 80 204.53125 L 80 145 C 80 143.964844 80.117188 143.007812 80.3125 142.03125 C 81.71875 135.195312 87.753906 130 95 130 L 155 130 C 168.730469 130 180 118.730469 180 105 Z M 150 195 C 144.492188 195 140 199.492188 140 205 C 140 210.507812 144.492188 215 150 215 C 155.507812 215 160 210.507812 160 205 C 160 199.492188 155.507812 195 150 195 Z M 150 195 "/>
</g>
</svg>
