<?xml version="1.0" encoding="UTF-8"?>
<svg xmlns="http://www.w3.org/2000/svg" xmlns:xlink="http://www.w3.org/1999/xlink" viewBox="0 0 250 250" width="250px" height="250px">
<g id="surface136697700">
<path style=" stroke:none;fill-rule:nonzero;fill:rgb(37.64706%,11.372549%,49.019608%);fill-opacity:1;" d="M 125 10 C 61.558594 10 10 61.558594 10 125 C 10 188.441406 61.558594 240 125 240 C 188.441406 240 240 188.441406 240 125 C 240 61.558594 188.441406 10 125 10 Z M 125 20 C 183.035156 20 230 66.964844 230 125 C 230 183.035156 183.035156 230 125 230 C 66.964844 230 20 183.035156 20 125 C 20 66.964844 66.964844 20 125 20 Z M 125 30 C 72.566406 30 30 72.566406 30 125 C 30 177.433594 72.566406 220 125 220 C 177.433594 220 220 177.433594 220 125 C 220 72.566406 177.433594 30 125 30 Z M 125 40 C 144.863281 40 163.058594 46.828125 177.507812 58.191406 C 174.980469 61.292969 173.496094 65.265625 173.496094 69.5 C 173.496094 77.5 177.996094 84.5 182.996094 92.5 C 186.996094 99 190.996094 107.5 190.996094 119.5 C 190.996094 128 188.496094 138.503906 183.496094 151.503906 L 173.496094 184.5 L 138 78.496094 C 143.996094 77.996094 149.5 77.5 149.5 77.5 C 154.5 77 154.003906 69.5 149.003906 69.5 L 148.496094 69.5 C 148.496094 69.5 132.5 70.996094 122 70.996094 C 112.5 70.996094 95.996094 69.5 95.996094 69.5 L 95.5 69.5 C 90.5 69.5 90 77.5 95 77.5 C 95 77.5 100 77.996094 105.5 78.496094 L 120.996094 120.5 L 99.5 185 L 63.496094 78 C 69.496094 77.5 75 77 75 77 C 80 76.5 79.5 69.003906 74.5 69.003906 L 74.003906 69.003906 C 74.003906 69.003906 67.445312 69.542969 60.222656 69.980469 C 75.800781 51.648438 98.992188 40 125 40 Z M 185.4375 65.207031 C 192.242188 72.082031 197.816406 80.144531 201.964844 89.023438 C 201.855469 94.683594 200.917969 100.335938 199.5 105.996094 C 197.5 98.996094 195 93 192 88 L 190.996094 85.996094 C 186.996094 79.496094 184.003906 74.5 184.003906 70 C 184.003906 68.289062 184.5 66.597656 185.4375 65.207031 Z M 118 80.5 L 123 80.5 C 125 81 126.503906 80.996094 129.003906 80.996094 L 129.5 82 L 165 187.996094 L 168.488281 197.976562 C 166.578125 199.117188 164.628906 200.175781 162.628906 201.160156 L 135.996094 130 L 132.5 120.5 L 131.503906 117 Z M 52.335938 80.996094 L 54.5 80.996094 L 55 82 L 90.996094 189.003906 L 94.003906 197.996094 L 92.285156 203.488281 C 90.910156 202.914062 89.597656 202.234375 88.261719 201.589844 L 47.585938 89.96875 C 48.988281 86.871094 50.585938 83.882812 52.332031 80.996094 Z M 207.929688 106.472656 C 209.25 112.441406 210 118.628906 210 125 C 210 151.296875 198.117188 174.734375 179.433594 190.3125 L 202.996094 122 C 205.183594 116.4375 206.761719 111.308594 207.929688 106.472656 Z M 41.835938 107.363281 L 72.902344 192.121094 C 52.898438 176.585938 40 152.359375 40 125 C 40 118.949219 40.640625 113.054688 41.835938 107.363281 Z M 125 133 L 151.710938 205.675781 C 143.308594 208.445312 134.34375 210 125 210 C 116.292969 210 107.902344 208.679688 100 206.257812 Z M 125 133 "/>
</g>
</svg>
