<?xml version="1.0" encoding="UTF-8"?>
<svg xmlns="http://www.w3.org/2000/svg" xmlns:xlink="http://www.w3.org/1999/xlink" viewBox="0 0 250 250" width="250px" height="250px">
<g id="surface136346777">
<path style=" stroke:none;fill-rule:nonzero;fill:rgb(49.803922%,29.019609%,59.215689%);fill-opacity:1;" d="M 85.148438 -0.0585938 C 83.292969 -0.128906 81.554688 0.835938 80.628906 2.441406 C 79.703125 4.050781 79.742188 6.039062 80.734375 7.605469 L 88.515625 20.320312 C 86.199219 21.746094 84 23.324219 81.875 25 L 45 25 C 31.253906 25 20 36.253906 20 50 L 20 195 C 20 208.746094 31.253906 220 45 220 L 70.480469 220 L 66.59375 228.261719 C 63.589844 234.648438 65.046875 242.660156 71.035156 247.039062 C 73.75 249.027344 76.914062 250 79.992188 250 C 85.632812 250 91.035156 246.773438 93.574219 241.386719 L 103.644531 220 L 146.359375 220 L 156.425781 241.386719 C 158.964844 246.78125 164.371094 250 170.011719 250 C 173.089844 250 176.25 249.015625 178.957031 247.039062 C 178.957031 247.039062 178.960938 247.039062 178.964844 247.039062 C 184.949219 242.664062 186.417969 234.652344 183.410156 228.261719 L 179.523438 220 L 200 220 L 200 245 C 200 247.761719 202.238281 250 205 250 L 215 250 C 228.746094 250 240 238.746094 240 225 L 240 90 C 240 76.253906 228.746094 65 215 65 L 193.234375 65 C 189.097656 46.144531 177.425781 30.121094 161.484375 20.320312 L 169.269531 7.605469 C 170.222656 6.09375 170.296875 4.179688 169.457031 2.597656 C 168.617188 1.015625 166.996094 0 165.207031 -0.0585938 C 163.378906 -0.121094 161.664062 0.820312 160.734375 2.390625 L 152.570312 15.730469 C 144.101562 12.082031 134.800781 10 125 10 C 115.199219 10 105.898438 12.082031 97.433594 15.730469 L 89.269531 2.390625 C 88.402344 0.925781 86.847656 0.00390625 85.148438 -0.0585938 Z M 125 20 C 153 20 176.363281 39.125 183.019531 65 L 66.984375 65 C 73.636719 39.125 97 20 125 20 Z M 45 35 L 71.511719 35 C 64.363281 43.511719 59.234375 53.75 56.765625 65 L 45 65 C 36.65625 65 30 58.34375 30 50 C 30 41.65625 36.65625 35 45 35 Z M 97.5 40 C 93.359375 40 90 43.359375 90 47.5 C 90 51.640625 93.359375 55 97.5 55 C 101.640625 55 105 51.640625 105 47.5 C 105 43.359375 101.640625 40 97.5 40 Z M 152.5 40 C 148.359375 40 145 43.359375 145 47.5 C 145 51.640625 148.359375 55 152.5 55 C 156.640625 55 160 51.640625 160 47.5 C 160 43.359375 156.640625 40 152.5 40 Z M 30 69.851562 C 34.195312 73.035156 39.359375 75 45 75 L 215 75 C 223.34375 75 230 81.65625 230 90 C 230 98.34375 223.34375 105 215 105 L 205 105 C 202.238281 105 200 107.238281 200 110 L 200 210 L 174.8125 210 L 142.167969 140.632812 C 144.085938 137.382812 145 133.671875 145 130 C 145 125.140625 143.40625 120.210938 139.992188 116.367188 C 137.53125 113.601562 134.066406 111.566406 130 110.617188 L 130 100 C 130.019531 98.648438 129.488281 97.347656 128.53125 96.390625 C 127.574219 95.4375 126.273438 94.910156 124.921875 94.933594 C 122.164062 94.976562 119.960938 97.242188 120 100 L 120 110.617188 C 115.933594 111.566406 112.46875 113.601562 110.007812 116.367188 C 106.59375 120.210938 105 125.140625 105 130 C 105 133.671875 105.914062 137.382812 107.832031 140.632812 L 75.1875 210 L 45 210 C 36.65625 210 30 203.34375 30 195 Z M 230 109.453125 L 230 225 C 230 233.34375 223.34375 240 215 240 L 210 240 L 210 115 L 215 115 C 220.726562 115 225.773438 112.722656 230 109.453125 Z M 124.511719 120.039062 C 124.84375 120.070312 125.175781 120.070312 125.507812 120.039062 C 128.921875 120.15625 131.003906 121.316406 132.507812 123.007812 C 134.09375 124.789062 135 127.359375 135 130 C 135 132.640625 134.09375 135.210938 132.507812 136.992188 C 130.925781 138.773438 128.75 140 125 140 C 121.25 140 119.074219 138.773438 117.492188 136.992188 C 115.90625 135.210938 115 132.640625 115 130 C 115 127.359375 115.90625 124.789062 117.492188 123.007812 C 118.996094 121.3125 121.085938 120.148438 124.511719 120.039062 Z M 115.535156 147.746094 C 118.296875 149.136719 121.472656 150 125 150 C 128.527344 150 131.703125 149.136719 134.464844 147.746094 L 174.355469 232.519531 C 175.457031 234.859375 174.851562 237.652344 173.058594 238.964844 C 172.035156 239.707031 171.015625 240 170.011719 240 C 168.136719 240 166.351562 238.984375 165.480469 237.128906 L 137.667969 178.027344 C 132.773438 167.625 117.226562 167.625 112.335938 178.027344 L 84.523438 237.128906 C 83.648438 238.976562 81.855469 240 79.992188 240 C 78.964844 240 77.949219 239.71875 76.933594 238.972656 C 76.933594 238.972656 76.933594 238.96875 76.933594 238.964844 C 75.140625 237.65625 74.546875 234.855469 75.644531 232.519531 L 75.636719 232.519531 Z M 125 179.753906 C 126.410156 179.753906 127.820312 180.597656 128.613281 182.285156 L 141.660156 210 L 108.339844 210 L 121.386719 182.285156 C 122.179688 180.597656 123.589844 179.753906 125 179.753906 Z M 125 179.753906 "/>
</g>
</svg>
