<?xml version="1.0" encoding="UTF-8"?>
<svg xmlns="http://www.w3.org/2000/svg" xmlns:xlink="http://www.w3.org/1999/xlink" viewBox="0 0 250 250" width="250px" height="250px">
<g id="surface136348426">
<path style=" stroke:none;fill-rule:nonzero;fill:rgb(49.803922%,29.019609%,59.215689%);fill-opacity:1;" d="M 124.804688 10 C 124.199219 9.980469 123.589844 10.074219 123.019531 10.273438 L 18.359375 46.699219 C 16.136719 47.472656 14.753906 49.695312 15.039062 52.03125 L 31.574219 187.648438 C 31.769531 189.253906 32.730469 190.664062 34.152344 191.4375 L 122.382812 239.394531 C 123.878906 240.207031 125.683594 240.203125 127.179688 239.386719 L 215.871094 190.773438 C 217.28125 189.996094 218.234375 188.589844 218.429688 186.992188 L 234.960938 51.386719 C 235.25 49.039062 233.851562 46.808594 231.613281 46.046875 L 126.269531 10.265625 C 125.796875 10.101562 125.304688 10.015625 124.804688 10 Z M 124.6875 20.292969 L 224.539062 54.207031 L 208.808594 183.242188 L 124.765625 229.304688 L 41.191406 183.875 L 25.449219 54.824219 Z M 125.175781 30 C 123.167969 29.929688 121.316406 31.070312 120.46875 32.890625 L 55.46875 172.890625 C 54.75 174.4375 54.867188 176.246094 55.785156 177.6875 C 56.703125 179.128906 58.292969 180 60 180 L 82.1875 180 C 84.132812 180 85.898438 178.871094 86.71875 177.109375 L 99.285156 150.039062 L 150.714844 150.039062 L 163.28125 177.109375 C 164.101562 178.871094 165.867188 180 167.8125 180 L 190 180 C 191.707031 180 193.296875 179.128906 194.214844 177.6875 C 195.132812 176.246094 195.25 174.4375 194.53125 172.890625 L 129.53125 32.890625 C 128.738281 31.183594 127.054688 30.066406 125.175781 30 Z M 125 46.867188 L 182.167969 170 L 171.003906 170 L 158.4375 142.929688 C 157.617188 141.167969 155.851562 140.039062 153.90625 140.039062 L 96.09375 140.039062 C 94.148438 140.039062 92.382812 141.167969 91.5625 142.929688 L 78.984375 170 L 67.832031 170 Z M 125.195312 77.5 C 123.171875 77.421875 121.304688 78.570312 120.457031 80.410156 L 100.828125 122.96875 C 100.117188 124.515625 100.242188 126.320312 101.164062 127.753906 C 102.082031 129.191406 103.667969 130.058594 105.371094 130.058594 L 144.628906 130.058594 C 146.332031 130.058594 147.917969 129.191406 148.835938 127.753906 C 149.757812 126.320312 149.882812 124.515625 149.167969 122.96875 L 129.539062 80.410156 C 128.753906 78.699219 127.074219 77.574219 125.195312 77.5 Z M 125 94.433594 L 136.816406 120.058594 L 113.183594 120.058594 Z M 125 94.433594 "/>
</g>
</svg>
