<?xml version="1.0" encoding="UTF-8"?>
<svg xmlns="http://www.w3.org/2000/svg" xmlns:xlink="http://www.w3.org/1999/xlink" viewBox="0 0 250 250" width="250px" height="250px">
<g id="surface136540421">
<path style=" stroke:none;fill-rule:nonzero;fill:rgb(49.803922%,29.019609%,59.215689%);fill-opacity:1;" d="M 78.4375 20 C 70.566406 20 63.261719 24.335938 59.375 31.25 L 12.96875 113.90625 C 9.082031 120.800781 9.082031 129.199219 12.96875 136.09375 L 59.375 218.75 C 63.261719 225.664062 70.566406 230 78.4375 230 L 171.5625 230 C 179.433594 230 186.738281 225.664062 190.625 218.75 L 237.03125 136.09375 C 240.917969 129.199219 240.917969 120.800781 237.03125 113.90625 L 190.625 31.25 C 186.738281 24.335938 179.433594 20 171.5625 20 Z M 78.4375 30 L 171.5625 30 C 175.78125 30 179.707031 32.246094 181.875 36.09375 L 195.3125 60 L 87.5 60 L 86.09375 62.5 L 55.78125 115 L 39.53125 86.875 L 68.125 36.09375 C 70.292969 32.246094 74.21875 30 78.4375 30 Z M 93.28125 70 L 156.71875 70 L 188.59375 125 L 170.625 156.09375 L 156.71875 180 L 93.28125 180 L 87.5 170.15625 L 74.53125 147.65625 L 61.40625 125 Z M 168.28125 70 L 200.9375 70 L 228.4375 118.75 C 230.605469 122.597656 230.605469 127.402344 228.4375 131.25 L 181.875 213.90625 C 179.707031 217.753906 175.78125 220 171.5625 220 L 145.3125 220 L 162.5 190 L 163.90625 187.5 L 198.59375 127.5 L 200 125 L 198.59375 122.5 Z M 125 95 C 108.496094 95 95 108.496094 95 125 C 95 141.503906 108.496094 155 125 155 C 141.503906 155 155 141.503906 155 125 C 155 108.496094 141.503906 95 125 95 Z M 33.75 97.03125 L 50 125 L 51.40625 127.5 L 78.90625 175.15625 L 86.09375 187.5 L 87.5 190 L 150.9375 190 L 133.59375 220 L 78.4375 220 C 74.21875 220 70.292969 217.753906 68.125 213.90625 L 21.5625 131.25 C 19.394531 127.402344 19.394531 122.597656 21.5625 118.75 Z M 125 105 C 136.113281 105 145 113.886719 145 125 C 145 136.113281 136.113281 145 125 145 C 113.886719 145 105 136.113281 105 125 C 105 113.886719 113.886719 105 125 105 Z M 125 105 "/>
</g>
</svg>
