<?xml version="1.0" encoding="UTF-8"?>
<svg xmlns="http://www.w3.org/2000/svg" xmlns:xlink="http://www.w3.org/1999/xlink" viewBox="0 0 250 250" width="250px" height="250px">
<g id="surface136528785">
<path style=" stroke:none;fill-rule:nonzero;fill:rgb(49.803922%,29.019609%,59.215689%);fill-opacity:1;" d="M 157.734375 10 C 157.25 10.023438 156.773438 10.113281 156.320312 10.273438 L 28.371094 54.269531 C 26.351562 54.964844 24.996094 56.867188 25 59.003906 L 25 190.996094 C 25 191.164062 25.011719 191.328125 25.03125 191.496094 C 25.03125 191.496094 25.03125 191.5 25.03125 191.503906 C 25.0625 191.832031 25.128906 192.15625 25.226562 192.46875 C 25.226562 192.472656 25.226562 192.476562 25.226562 192.480469 C 25.324219 192.796875 25.453125 193.105469 25.617188 193.398438 C 25.855469 193.835938 26.15625 194.234375 26.515625 194.578125 C 26.636719 194.695312 26.761719 194.808594 26.894531 194.910156 C 27.15625 195.121094 27.4375 195.304688 27.734375 195.460938 C 27.878906 195.535156 28.03125 195.601562 28.183594 195.664062 C 28.1875 195.664062 28.191406 195.664062 28.195312 195.664062 C 28.25 195.6875 28.308594 195.710938 28.371094 195.734375 L 156.320312 239.726562 C 157.257812 240.050781 158.269531 240.085938 159.230469 239.835938 L 221.289062 223.332031 C 223.476562 222.746094 225 220.761719 225 218.496094 L 225 31.503906 C 225 29.238281 223.476562 27.253906 221.289062 26.667969 L 159.230469 10.164062 C 158.742188 10.035156 158.238281 9.980469 157.734375 10 Z M 158.125 20.222656 L 215 35.34375 L 215 214.65625 L 158.125 229.777344 L 78.769531 202.480469 L 154.34375 212.460938 C 155.773438 212.648438 157.214844 212.210938 158.296875 211.261719 C 159.378906 210.3125 160 208.941406 160 207.5 L 160 48 C 160 46.496094 159.320312 45.074219 158.15625 44.125 C 156.992188 43.179688 155.464844 42.804688 153.996094 43.105469 L 73.996094 59.597656 C 71.667969 60.078125 70 62.125 70 64.5 L 70 171.003906 L 35 183.847656 L 35 62.566406 Z M 150 54.140625 L 150 201.796875 L 50.789062 188.703125 L 76.71875 179.199219 C 78.691406 178.476562 80 176.601562 80 174.503906 L 80 68.574219 Z M 150 54.140625 "/>
</g>
</svg>
