<?xml version="1.0" encoding="UTF-8"?>
<svg xmlns="http://www.w3.org/2000/svg" xmlns:xlink="http://www.w3.org/1999/xlink" viewBox="0 0 250 250" width="250px" height="250px">
<g id="surface136439557">
<path style=" stroke:none;fill-rule:nonzero;fill:rgb(49.803922%,29.019609%,59.215689%);fill-opacity:1;" d="M 202.246094 15 C 201.796875 14.980469 201.328125 15.039062 200.878906 15.15625 L 118.828125 35.15625 C 117.246094 35.527344 115.957031 36.640625 115.371094 38.144531 L 106.621094 60 L 80 60 C 78.613281 60 77.265625 60.585938 76.328125 61.621094 L 16.328125 126.621094 C 14.472656 128.613281 14.570312 131.738281 16.5625 133.613281 L 79.453125 193.613281 C 80.390625 194.511719 81.621094 195 82.910156 195 L 111.621094 195 L 120.371094 216.855469 C 120.996094 218.476562 122.441406 219.628906 124.140625 219.921875 L 211.445312 234.921875 C 214.082031 235.390625 216.601562 233.671875 217.1875 231.074219 L 234.882812 149.921875 C 235.15625 148.671875 234.941406 147.34375 234.277344 146.25 L 222.636719 127.148438 L 234.511719 102.148438 C 235.078125 100.957031 235.15625 99.589844 234.707031 98.359375 L 206.796875 18.359375 C 206.113281 16.40625 204.296875 15.078125 202.246094 15 Z M 198.847656 25.9375 L 224.609375 99.707031 L 217.226562 115.234375 L 199.765625 58.515625 C 199.121094 56.386719 197.109375 54.941406 194.863281 55 C 193.027344 55.058594 191.347656 56.113281 190.527344 57.753906 L 155.527344 127.753906 C 154.726562 129.355469 154.84375 131.25 155.820312 132.734375 L 195.820312 193.789062 C 196.914062 195.46875 198.925781 196.308594 200.898438 195.957031 C 202.851562 195.605469 204.433594 194.101562 204.863281 192.148438 L 217.265625 137.578125 L 224.6875 149.746094 L 208.4375 224.257812 L 128.59375 210.546875 L 123.007812 196.5625 L 180.917969 207.324219 C 182.890625 207.675781 184.902344 206.835938 185.996094 205.15625 C 187.109375 203.457031 187.109375 201.289062 185.976562 199.609375 L 144.140625 137.207031 C 143.222656 135.839844 141.660156 135 140 135 L 60 135 C 57.929688 135 56.074219 136.269531 55.332031 138.203125 C 54.589844 140.117188 55.117188 142.304688 56.640625 143.691406 L 102.070312 185 L 84.921875 185 L 27.011719 129.765625 L 82.1875 70 L 98.691406 70 L 56.308594 116.640625 C 54.960938 118.105469 54.628906 120.214844 55.429688 122.03125 C 56.230469 123.828125 58.027344 125 60 125 L 140 125 C 141.894531 125 143.632812 123.925781 144.472656 122.246094 L 179.472656 52.246094 C 180.234375 50.703125 180.175781 48.90625 179.296875 47.441406 C 178.417969 45.976562 176.875 45.058594 175.15625 45 C 174.726562 44.980469 174.296875 45.019531 173.886719 45.117188 L 118.203125 57.96875 L 123.671875 44.257812 Z M 165.78125 57.265625 L 136.914062 115 L 71.308594 115 L 112.65625 69.53125 Z M 193.90625 73.398438 L 209.824219 125.195312 L 197.734375 178.457031 L 165.761719 129.667969 Z M 72.929688 145 L 137.34375 145 L 171.054688 195.3125 L 117.324219 185.332031 Z M 72.929688 145 "/>
</g>
</svg>
