<?xml version="1.0" encoding="UTF-8"?>
<svg xmlns="http://www.w3.org/2000/svg" xmlns:xlink="http://www.w3.org/1999/xlink" viewBox="0 0 250 250" width="250px" height="250px">
<g id="surface136552280">
<path style=" stroke:none;fill-rule:nonzero;fill:rgb(49.803922%,29.019609%,59.215689%);fill-opacity:1;" d="M 125 10 C 61.542969 10 10 61.542969 10 125 C 10 188.457031 61.542969 240 125 240 C 188.457031 240 240 188.457031 240 125 C 240 61.542969 188.457031 10 125 10 Z M 125 20 C 183.046875 20 230 66.953125 230 125 C 230 183.046875 183.046875 230 125 230 C 66.953125 230 20 183.046875 20 125 C 20 66.953125 66.953125 20 125 20 Z M 118.203125 52.246094 C 117.832031 52.246094 117.460938 52.304688 117.109375 52.382812 C 97.34375 57.089844 76.972656 70.9375 61.660156 88.046875 C 46.367188 105.175781 35.820312 125.703125 38.164062 144.902344 C 38.4375 147.03125 40.039062 148.769531 42.167969 149.199219 C 44.277344 149.609375 46.425781 148.632812 47.5 146.738281 C 57.265625 129.472656 65.351562 119.921875 71.113281 114.84375 C 76.875 109.746094 80.585938 109.296875 80.292969 109.296875 C 80.664062 109.296875 80.761719 109.316406 80.859375 109.316406 C 80.742188 109.199219 80.9375 109.296875 80.9375 110.546875 L 80.9375 162.96875 C 80.9375 163.574219 80.9375 163.417969 80.957031 163.359375 C 80.3125 163.515625 78.203125 163.4375 76.191406 163.125 C 74.238281 162.851562 72.285156 163.730469 71.230469 165.410156 C 70.175781 167.089844 70.195312 169.21875 71.308594 170.859375 C 88.730469 196.835938 126.835938 197.734375 126.835938 197.734375 C 128.300781 197.8125 129.726562 197.226562 130.722656 196.132812 L 143.632812 182.109375 L 155.546875 192.304688 C 157.246094 193.75 159.667969 193.90625 161.523438 192.695312 C 174.042969 184.589844 184.21875 173.867188 191.367188 164.589844 C 194.941406 159.960938 197.753906 155.683594 199.746094 152.207031 C 200.722656 150.46875 201.503906 148.925781 202.089844 147.558594 C 202.675781 146.171875 203.203125 145.292969 203.203125 143.144531 C 203.222656 141.074219 201.933594 139.21875 200.019531 138.476562 C 198.085938 137.734375 195.898438 138.242188 194.511719 139.785156 C 189.003906 145.839844 184.042969 149.296875 180.3125 151.230469 C 176.582031 153.144531 173.515625 153.457031 174.121094 153.457031 C 173.671875 153.457031 173.535156 153.398438 173.164062 153.359375 L 173.164062 92.851562 C 173.164062 93.808594 173.554688 91.640625 174.863281 89.394531 C 176.191406 87.148438 178.105469 84.335938 180.214844 81.484375 C 184.394531 75.800781 189.199219 69.980469 191.640625 66.855469 C 192.96875 65.175781 193.066406 62.832031 191.894531 61.035156 C 190.722656 59.238281 188.535156 58.398438 186.464844 58.925781 C 170.390625 63.144531 159.121094 69.296875 151.816406 74.511719 C 146.660156 78.183594 145.605469 79.765625 144.121094 81.40625 C 143.730469 81.230469 143.808594 81.191406 143.359375 81.035156 C 140.664062 80.078125 136.738281 79.179688 131.582031 79.179688 C 129.492188 79.179688 127.636719 80.488281 126.894531 82.441406 C 126.171875 84.414062 126.757812 86.621094 128.339844 87.96875 C 131.269531 90.488281 134.824219 94.980469 134.824219 98.652344 L 134.824219 152.871094 C 133.847656 153.515625 133.378906 153.90625 131.523438 154.941406 C 128.515625 156.621094 124.570312 157.988281 123.652344 157.988281 C 121.386719 157.988281 119.765625 157.441406 119.082031 156.992188 C 118.417969 156.542969 118.4375 156.621094 118.4375 155.917969 L 118.4375 87.871094 C 118.457031 86.074219 117.480469 84.414062 115.917969 83.515625 C 114.355469 82.636719 112.441406 82.65625 110.878906 83.574219 C 110.488281 82.597656 109.941406 80.234375 109.941406 76.25 C 109.941406 74.375 112.304688 70.097656 115.292969 66.816406 C 118.28125 63.554688 121.308594 61.230469 121.308594 61.230469 C 123.027344 59.902344 123.710938 57.65625 123.007812 55.605469 C 122.285156 53.574219 120.351562 52.207031 118.203125 52.246094 Z M 101.660156 70.175781 C 100.898438 72.109375 99.941406 73.945312 99.941406 76.25 C 99.941406 81.035156 100.46875 84.550781 101.640625 87.402344 C 102.832031 90.253906 105.078125 92.558594 107.617188 93.398438 C 107.949219 93.515625 108.125 93.320312 108.4375 93.378906 L 108.4375 155.917969 C 108.4375 159.746094 110.605469 163.359375 113.535156 165.3125 C 116.484375 167.265625 119.960938 167.988281 123.652344 167.988281 C 128.691406 167.988281 132.832031 165.664062 136.40625 163.671875 C 139.980469 161.679688 142.734375 159.6875 142.734375 159.6875 C 144.042969 158.730469 144.824219 157.226562 144.824219 155.625 L 144.824219 98.652344 C 144.824219 95.9375 143.554688 93.945312 142.65625 91.738281 C 144.785156 92.832031 147.402344 92.246094 148.886719 90.351562 C 148.886719 90.351562 151.25 87.1875 157.636719 82.65625 C 161.328125 80.019531 166.738281 77.109375 173.144531 74.296875 C 172.753906 74.804688 172.519531 75.058594 172.148438 75.566406 C 169.941406 78.574219 167.851562 81.582031 166.25 84.355469 C 164.628906 87.128906 163.164062 89.199219 163.164062 92.851562 L 163.164062 155.058594 C 163.164062 156.816406 163.808594 158.730469 164.902344 160.078125 C 165.996094 161.40625 167.34375 162.148438 168.515625 162.597656 C 170.839844 163.496094 172.773438 163.457031 174.121094 163.457031 C 175.917969 163.457031 178.535156 162.226562 180.898438 161.347656 C 175.097656 168.417969 167.636719 175.839844 158.90625 182.03125 L 146.464844 171.386719 C 144.414062 169.628906 141.347656 169.804688 139.53125 171.796875 L 125.234375 187.34375 C 122.304688 187.109375 100.859375 184.394531 86.230469 171.347656 C 87.128906 170.800781 88.105469 170.625 88.828125 169.707031 C 90.292969 167.851562 90.9375 165.410156 90.9375 162.96875 L 90.9375 110.546875 C 90.9375 107.636719 90.234375 104.648438 88.144531 102.421875 C 86.074219 100.175781 83.027344 99.296875 80.292969 99.296875 C 80.273438 99.296875 80.273438 99.296875 80.273438 99.296875 C 76.289062 99.296875 71.40625 101.25 64.511719 107.34375 C 60.859375 110.546875 56.679688 115.195312 52.128906 121.25 C 55.800781 112.304688 61.601562 103.125 69.121094 94.726562 C 78.457031 84.296875 90 76.328125 101.660156 70.175781 Z M 101.660156 70.175781 "/>
</g>
</svg>
