<?xml version="1.0" encoding="UTF-8"?>
<svg xmlns="http://www.w3.org/2000/svg" xmlns:xlink="http://www.w3.org/1999/xlink" viewBox="0 0 240 240" width="240px" height="240px">
<g id="surface136574232">
<path style=" stroke:none;fill-rule:nonzero;fill:rgb(37.64706%,11.372549%,49.019608%);fill-opacity:1;" d="M 57.875 43.789062 C 63.515625 44.675781 70.640625 46.089844 78.246094 48.25 C 76.53125 53.136719 75.066406 58.269531 73.964844 63.535156 C 68.5 63.484375 63.101562 63.863281 57.90625 64.539062 C 57.410156 56.71875 57.539062 49.535156 57.875 43.789062 Z M 50.410156 65.71875 C 49.980469 59.488281 49.949219 53.664062 50.109375 48.546875 C 49.84375 48.804688 49.550781 49.023438 49.285156 49.289062 C 43.035156 55.539062 37.898438 62.46875 33.648438 69.773438 C 38.585938 68.316406 44.210938 66.863281 50.410156 65.71875 Z M 61.023438 85.605469 C 63.921875 80.636719 67.421875 75.925781 71.671875 71.671875 C 71.894531 71.445312 72.140625 71.261719 72.363281 71.039062 C 67.691406 71.078125 63.054688 71.449219 58.570312 72.050781 C 59.089844 76.53125 59.941406 81.085938 61.023438 85.605469 Z M 54.644531 91.210938 C 52.96875 85.234375 51.828125 79.171875 51.113281 73.269531 C 42.300781 74.949219 34.535156 77.253906 28.808594 79.214844 C 28.710938 79.441406 28.601562 79.65625 28.5 79.878906 C 31.011719 85.5 34.679688 92.863281 39.519531 100.539062 C 44.199219 97.160156 49.261719 93.964844 54.644531 91.210938 Z M 33.878906 104.824219 C 30.300781 99.214844 27.394531 93.824219 25.03125 89.015625 C 22.066406 98.148438 20.453125 107.609375 20.183594 117.121094 C 23.976562 113.328125 28.585938 109.066406 33.878906 104.824219 Z M 21.011719 133.121094 C 22.269531 142.730469 24.929688 152.160156 28.976562 161.140625 C 30.828125 155.988281 33.214844 150.113281 36.226562 144.015625 C 30.414062 140.34375 25.28125 136.550781 21.011719 133.121094 Z M 21.601562 125.765625 C 26.136719 129.589844 32.109375 134.195312 39.046875 138.621094 C 41.804688 133.589844 45 128.574219 48.660156 123.816406 C 44.65625 119.65625 41.050781 115.210938 37.839844 110.703125 C 31.214844 116.058594 25.636719 121.488281 21.601562 125.765625 Z M 43.441406 106.410156 C 45.96875 109.996094 48.804688 113.496094 51.839844 116.84375 C 52.113281 110.816406 53.164062 104.824219 55.023438 99.023438 C 50.964844 101.289062 47.066406 103.769531 43.441406 106.410156 Z M 81.15625 40.691406 C 83.539062 34.933594 86.09375 29.71875 88.515625 25.210938 C 80.164062 27.96875 72.089844 31.773438 64.570312 36.785156 C 69.550781 37.710938 75.175781 38.953125 81.15625 40.691406 Z M 88.871094 43.125 C 93.464844 44.730469 98.113281 46.648438 102.679688 48.878906 C 106.988281 43.890625 110.683594 39.683594 113.164062 36.878906 C 109.566406 33.894531 103.855469 29.304688 97.851562 24.953125 C 95.035156 29.886719 91.820312 36.109375 88.871094 43.125 Z M 55.839844 178.019531 C 48.648438 177.363281 42.039062 176.234375 36.503906 175.054688 C 40.160156 180.59375 44.421875 185.84375 49.289062 190.714844 C 51.855469 193.28125 54.535156 195.648438 57.296875 197.875 C 56.535156 192.160156 55.921875 185.351562 55.839844 178.019531 Z M 190.710938 49.285156 C 168.398438 26.980469 138.085938 17.496094 108.925781 20.71875 C 116.828125 26.75 123.125 32.191406 123.585938 32.59375 L 127.421875 35.929688 L 124.023438 39.710938 C 123.945312 39.800781 119.546875 44.714844 113.175781 52.039062 C 115.445312 51.816406 117.71875 51.691406 120 51.691406 C 137.5 51.691406 155.003906 58.355469 168.328125 71.675781 C 194.980469 98.324219 194.980469 141.683594 168.328125 168.335938 C 145.238281 191.417969 109.609375 194.464844 83.171875 177.542969 C 78.101562 178.28125 73 178.613281 68.015625 178.613281 C 65.78125 178.613281 63.585938 178.535156 61.410156 178.425781 C 61.546875 187.773438 62.574219 196.261719 63.589844 202.511719 C 80.535156 214.105469 100.253906 219.96875 120.003906 219.96875 C 145.613281 219.96875 171.21875 210.21875 190.714844 190.730469 C 229.699219 151.71875 229.699219 88.28125 190.710938 49.285156 Z M 76.480469 172.675781 C 74.828125 171.308594 73.21875 169.875 71.675781 168.335938 C 68.320312 164.980469 65.390625 161.355469 62.878906 157.535156 C 62.035156 162.667969 61.578125 167.820312 61.449219 172.835938 C 66.339844 173.101562 71.410156 173.054688 76.480469 172.675781 Z M 85.925781 50.65625 C 84.515625 54.621094 83.308594 58.761719 82.320312 62.976562 C 86.871094 59.964844 91.71875 57.628906 96.71875 55.824219 C 96.894531 55.621094 97.089844 55.386719 97.265625 55.179688 C 93.515625 53.449219 89.703125 51.953125 85.925781 50.65625 Z M 52.351562 128.996094 C 49.320312 133.113281 46.59375 137.417969 44.230469 141.765625 C 48.554688 144.265625 53.175781 146.550781 57.96875 148.511719 C 55.109375 142.265625 53.230469 135.691406 52.351562 128.996094 Z M 57.703125 154.914062 C 51.976562 152.730469 46.519531 150.054688 41.445312 147.148438 C 37.570312 155.078125 34.738281 162.664062 32.835938 168.53125 C 38.84375 169.984375 46.949219 171.570312 55.898438 172.425781 C 56.070312 166.703125 56.621094 160.804688 57.703125 154.914062 Z M 57.703125 154.914062 "/>
</g>
</svg>
