<?xml version="1.0" encoding="UTF-8"?>
<svg xmlns="http://www.w3.org/2000/svg" xmlns:xlink="http://www.w3.org/1999/xlink" viewBox="0 0 250 250" width="250px" height="250px">
<g id="surface136354349">
<path style=" stroke:none;fill-rule:nonzero;fill:rgb(37.64706%,11.372549%,49.019608%);fill-opacity:1;" d="M 55 70 C 24.765625 70 0 94.765625 0 125 C 0 155.234375 24.765625 180 55 180 C 77.089844 180 95.625 166.5625 108.59375 153.59375 C 116.09375 146.09375 121.503906 138.789062 125 133.75 C 128.496094 138.789062 133.90625 146.09375 141.40625 153.59375 C 154.375 166.5625 172.910156 180 195 180 C 225.234375 180 250 155.234375 250 125 C 250 94.765625 225.234375 70 195 70 C 172.910156 70 154.375 83.4375 141.40625 96.40625 C 133.964844 103.847656 128.496094 111.054688 125 116.09375 C 121.523438 111.054688 116.25 103.828125 108.90625 96.40625 C 96.054688 83.417969 77.539062 70 55 70 Z M 55 80 C 73.476562 80 89.980469 91.582031 101.875 103.59375 C 111.796875 113.613281 117.1875 121.972656 119.0625 125 C 117.109375 128.066406 111.425781 136.386719 101.40625 146.40625 C 89.375 158.4375 72.910156 170 55 170 C 30.234375 170 10 149.765625 10 125 C 10 100.234375 30.234375 80 55 80 Z M 195 80 C 219.765625 80 240 100.234375 240 125 C 240 149.765625 219.765625 170 195 170 C 177.089844 170 160.625 158.4375 148.59375 146.40625 C 138.574219 136.386719 132.890625 128.066406 130.9375 125 C 132.890625 121.933594 138.574219 113.613281 148.59375 103.59375 C 160.625 91.5625 177.089844 80 195 80 Z M 190 105 L 190 120 L 175 120 L 175 130 L 190 130 L 190 145 L 200 145 L 200 130 L 215 130 L 215 120 L 200 120 L 200 105 Z M 35 120 L 35 130 L 75 130 L 75 120 Z M 35 120 "/>
</g>
</svg>
