<?xml version="1.0" encoding="UTF-8"?>
<svg xmlns="http://www.w3.org/2000/svg" xmlns:xlink="http://www.w3.org/1999/xlink" viewBox="0 0 250 250" width="250px" height="250px">
<g id="surface136455787">
<path style=" stroke:none;fill-rule:nonzero;fill:rgb(26.274511%,7.843138%,34.117648%);fill-opacity:1;" d="M 125 10 C 124.832031 10 124.667969 10.003906 124.5 10.019531 C 106.425781 10.105469 93.101562 14.683594 84.296875 19.386719 C 77.195312 23.175781 74.976562 25.816406 73.503906 27.296875 C 70.800781 26.222656 68.132812 25 65 25 C 51.253906 25 40 36.253906 40 50 C 40 60.140625 46.265625 68.59375 55 72.492188 L 55 119.394531 L 42.195312 132.199219 C 39.265625 135.128906 39.265625 139.871094 42.195312 142.804688 C 43.664062 144.269531 45.578125 145 47.5 145 C 49.421875 145 51.335938 144.269531 52.804688 142.804688 L 53.671875 141.933594 C 53.320312 144.203125 52.992188 146.457031 52.578125 148.828125 C 51.316406 156.085938 50 164.722656 50 180 C 50 194.1875 56.742188 208.902344 69.179688 220.214844 L 62.199219 227.199219 C 59.265625 230.128906 59.265625 234.871094 62.199219 237.804688 C 63.664062 239.269531 65.578125 240 67.5 240 C 69.421875 240 71.34375 239.269531 72.804688 237.804688 L 81.496094 229.113281 C 93.050781 235.734375 107.515625 239.910156 124.5625 239.980469 C 124.589844 239.984375 124.621094 239.988281 124.648438 239.992188 C 124.769531 239.992188 124.878906 240 125 240 C 125.167969 240.003906 125.339844 239.996094 125.507812 239.980469 C 142.523438 239.898438 156.964844 235.726562 168.507812 229.113281 L 177.199219 237.804688 C 178.65625 239.269531 180.578125 240 182.5 240 C 184.421875 240 186.335938 239.269531 187.804688 237.804688 C 190.734375 234.871094 190.734375 230.128906 187.804688 227.199219 L 180.8125 220.207031 C 193.242188 208.894531 200 194.183594 200 180 C 200 164.722656 198.683594 156.085938 197.421875 148.828125 C 197.007812 146.457031 196.683594 144.203125 196.328125 141.933594 L 197.199219 142.804688 C 198.664062 144.269531 200.582031 145 202.5 145 C 204.421875 145 206.335938 144.269531 207.804688 142.804688 C 210.734375 139.871094 210.734375 135.128906 207.804688 132.199219 L 195 119.394531 L 195 72.492188 C 203.738281 68.59375 210 60.140625 210 50 C 210 36.253906 198.746094 25 185 25 C 181.867188 25 179.199219 26.222656 176.496094 27.292969 C 175.023438 25.816406 172.804688 23.175781 165.703125 19.382812 C 156.875 14.671875 143.503906 10.070312 125.351562 10.007812 C 125.234375 10.003906 125.117188 10 125 10 Z M 125 20 C 141.664062 20 153.40625 24.152344 160.996094 28.203125 C 168.585938 32.253906 171.699219 35.890625 171.699219 35.890625 C 173.265625 37.671875 175.867188 38.109375 177.929688 36.933594 C 180.089844 35.703125 182.441406 35 185 35 C 193.34375 35 200 41.65625 200 50 C 200 57.027344 195.214844 62.8125 188.75 64.480469 C 186.546875 65.050781 185.003906 67.039062 185 69.316406 L 185 125 C 185 136.621094 186.339844 143.433594 187.578125 150.546875 C 188.816406 157.660156 190 165.277344 190 180 C 190 202.363281 167.824219 230 125 230 C 82.175781 230 60 202.363281 60 180 C 60 165.277344 61.183594 157.660156 62.421875 150.546875 C 63.660156 143.433594 65 136.621094 65 125 L 65 69.316406 C 64.996094 67.039062 63.453125 65.050781 61.25 64.484375 C 54.785156 62.8125 50 57.027344 50 50 C 50 41.65625 56.65625 35 65 35 C 67.558594 35 69.910156 35.703125 72.070312 36.933594 C 74.132812 38.109375 76.734375 37.671875 78.300781 35.890625 C 78.300781 35.890625 81.414062 32.253906 89.003906 28.203125 C 96.59375 24.152344 108.335938 20 125 20 Z M 97.5 40 C 85.132812 40 75 50.132812 75 62.5 C 75 74.867188 85.132812 85 97.5 85 C 109.867188 85 120 74.867188 120 62.5 C 120 50.132812 109.867188 40 97.5 40 Z M 152.492188 40.007812 C 140.125 40.007812 130 50.136719 130 62.5 C 130 74.863281 140.125 84.992188 152.492188 84.992188 C 164.855469 84.992188 174.992188 74.863281 174.992188 62.5 C 174.992188 50.136719 164.855469 40.007812 152.492188 40.007812 Z M 65 45 C 62.238281 45 60 47.238281 60 50 C 60 52.761719 62.238281 55 65 55 C 65.339844 55 65.636719 54.871094 65.957031 54.804688 C 66.628906 52.070312 67.609375 49.453125 68.925781 47.03125 C 68.011719 45.828125 66.628906 45 65 45 Z M 185 45 C 183.371094 45 181.988281 45.828125 181.074219 47.03125 C 182.390625 49.453125 183.371094 52.070312 184.042969 54.804688 C 184.363281 54.871094 184.660156 55 185 55 C 187.761719 55 190 52.761719 190 50 C 190 47.238281 187.761719 45 185 45 Z M 97.5 50 C 104.460938 50 110 55.539062 110 62.5 C 110 69.460938 104.460938 75 97.5 75 C 93.378906 75 89.789062 73.027344 87.519531 70 C 91.652344 69.988281 95 66.632812 95 62.5 C 95 58.367188 91.652344 55.011719 87.519531 55 C 89.789062 51.972656 93.378906 50 97.5 50 Z M 152.492188 50.007812 C 159.449219 50.007812 164.992188 55.539062 164.992188 62.5 C 164.992188 69.460938 159.449219 74.992188 152.492188 74.992188 C 148.371094 74.992188 144.785156 73.023438 142.519531 70 C 146.652344 69.988281 150 66.632812 150 62.5 C 150 58.367188 146.652344 55.011719 142.519531 55 C 144.785156 51.976562 148.371094 50.007812 152.492188 50.007812 Z M 125 80 C 117.914062 80.003906 111.796875 83.308594 110.332031 87.929688 C 108.824219 88.859375 107.394531 89.910156 106.152344 91.152344 C 102.554688 94.75 100 99.582031 100 105 C 100 106.25 100.289062 111.265625 104.210938 114.695312 C 106.667969 116.847656 110.207031 118.300781 115 119.152344 L 115 125 C 114.972656 126.804688 115.921875 128.480469 117.480469 129.390625 C 119.035156 130.296875 120.964844 130.296875 122.519531 129.390625 C 124.078125 128.480469 125.027344 126.804688 125 125 C 124.972656 126.804688 125.921875 128.480469 127.480469 129.390625 C 129.035156 130.296875 130.964844 130.296875 132.519531 129.390625 C 134.078125 128.480469 135.027344 126.804688 135 125 L 135 119.152344 C 139.792969 118.300781 143.332031 116.847656 145.789062 114.699219 C 149.710938 111.265625 150 106.25 150 105 C 150 99.582031 147.445312 94.75 143.847656 91.152344 C 142.605469 89.910156 141.167969 88.863281 139.65625 87.929688 C 138.191406 83.3125 132.082031 80.003906 125 80 Z M 114.523438 97.136719 C 117.320312 98.96875 121.082031 99.996094 125 100 C 128.921875 100 132.6875 98.976562 135.488281 97.148438 C 135.929688 97.480469 136.375 97.820312 136.777344 98.222656 C 138.804688 100.25 140 102.917969 140 105 C 140 106.25 140.289062 106.234375 139.210938 107.179688 C 138.128906 108.121094 134.375 110 125 110 C 115.625 110 111.871094 108.121094 110.789062 107.179688 C 109.710938 106.234375 110 106.25 110 105 C 110 102.917969 111.195312 100.25 113.222656 98.222656 C 113.628906 97.816406 114.074219 97.476562 114.523438 97.136719 Z M 114.523438 97.136719 "/>
</g>
</svg>
