<?xml version="1.0" encoding="UTF-8"?>
<svg xmlns="http://www.w3.org/2000/svg" xmlns:xlink="http://www.w3.org/1999/xlink" viewBox="0 0 250 250" width="250px" height="250px">
<g id="surface136655965">
<path style=" stroke:none;fill-rule:nonzero;fill:rgb(49.803922%,29.019609%,59.215689%);fill-opacity:1;" d="M 174.511719 10 C 164.316406 10 155.488281 12.753906 149.375 15.46875 C 143.378906 13.457031 133.4375 10.019531 121.503906 12.5 C 114.550781 13.710938 108.164062 16.582031 102.304688 20.976562 C 92.65625 16.328125 82.578125 13.476562 72.011719 13.007812 C 65.507812 12.5 39.003906 15.507812 29.492188 29.492188 C 25.996094 35 22.5 41.992188 20.996094 50.488281 C 19.492188 57.988281 19.492188 66.503906 21.992188 84.003906 C 23.496094 95.996094 25.507812 104.003906 30 120.488281 C 30.507812 121.992188 33.007812 130 40.507812 152.011719 C 41.992188 155.996094 45 163.496094 50.996094 170.488281 C 55 175.488281 59.003906 178.496094 64.003906 178.496094 C 70.507812 178.496094 75 174.003906 79.003906 169.003906 C 79.296875 168.671875 79.609375 168.300781 79.902344 167.96875 C 79.53125 168.554688 79.199219 169.199219 79.003906 170 C 78.007812 175 84.003906 179.003906 89.003906 180.996094 C 93.007812 182.988281 97.5 183.496094 100.996094 183.496094 C 105.488281 183.496094 109.003906 182.5 110.996094 182.011719 C 112.714844 181.425781 116.425781 179.824219 120.390625 177.1875 C 120.566406 189.960938 120.683594 205.039062 120.996094 208.496094 C 122.5 221.503906 125.996094 230.488281 132.5 235.488281 C 137.5 239.492188 146.503906 240 147.011719 240 C 155.996094 240 170 234.003906 175.996094 224.511719 C 179.003906 220 180 215.996094 180.996094 210.488281 C 181.992188 207.5 182.988281 190 183.496094 186.503906 C 184.179688 180.976562 184.707031 175.527344 185.234375 170.234375 C 188.535156 171.09375 192.597656 172.011719 197.011719 172.011719 C 205 172.011719 215.507812 166.503906 217.5 165.488281 C 221.503906 162.5 229.492188 155.507812 225.996094 149.511719 C 224.003906 145.996094 220.996094 145.996094 213.496094 147.011719 C 213.496094 147.011719 201.503906 148.496094 200.488281 147.988281 C 199.765625 147.714844 198.652344 147.011719 197.402344 146.09375 C 200 142.070312 202.304688 138.085938 205 134.511719 C 210.996094 123.007812 214.511719 114.003906 217.011719 107.011719 C 221.503906 94.511719 224.003906 84.492188 225.488281 77.5 C 229.003906 62.5 230 55.507812 227.988281 47.5 C 224.003906 33.496094 209.492188 21.503906 203.496094 18.007812 C 199.492188 15.996094 189.511719 10 174.511719 10 Z M 174.511719 20 C 187.011719 20 195.507812 25 200 26.992188 C 205.507812 30 218.007812 40 219.003906 49.492188 C 219.511719 55 220 60.507812 216.503906 75 C 214.511719 81.992188 212.5 90.996094 207.988281 103.496094 C 205.488281 110.488281 202.5 119.003906 196.503906 129.511719 C 196.347656 129.765625 196.171875 130.039062 196.015625 130.3125 C 196.601562 128.203125 197.011719 126.503906 197.011719 126.503906 C 198.007812 121.503906 198.007812 117.5 197.5 111.503906 C 196.992188 108.496094 196.503906 100.996094 196.503906 97.988281 C 196.503906 96.503906 197.988281 80.996094 198.496094 75.488281 C 199.003906 66.503906 193.496094 55.488281 192.011719 53.496094 C 184.511719 41.992188 180.507812 35.507812 172.5 29.003906 C 170.507812 27.304688 167.089844 24.472656 162.441406 21.621094 C 166.113281 20.722656 170.175781 20 174.511719 20 Z M 130.332031 22.050781 C 136.855469 22.207031 142.382812 24.003906 146.503906 25.507812 C 157.011719 29.003906 163.496094 34.492188 166.503906 36.992188 C 173.007812 42.5 176.503906 48.007812 184.003906 59.511719 C 184.550781 60.605469 185.976562 62.929688 187.109375 66.171875 C 176.875 65.234375 170.078125 68.828125 165.996094 72.5 C 160 77.5 160.488281 85 160.996094 90.488281 C 160.996094 94.492188 162.011719 99.511719 169.511719 116.503906 C 172.5 124.003906 175.488281 131.992188 178.496094 137.5 C 180.058594 140.605469 181.972656 143.457031 184.023438 145.996094 C 182.832031 146.601562 181.621094 147.382812 180.488281 148.496094 C 177.5 151.992188 176.992188 155.507812 175.996094 162.011719 C 175 167.011719 174.003906 177.5 173.496094 185.996094 C 173.496094 189.492188 172.011719 206.503906 171.503906 209.003906 C 170 214.003906 169.492188 216.503906 167.5 219.511719 C 164.003906 225 153.007812 229.511719 146.503906 229.003906 C 144.511719 229.003906 141.503906 229.003906 139.003906 227.011719 C 133.496094 223.007812 131.503906 214.003906 130.996094 207.011719 C 130.488281 202.011719 130.996094 165.996094 130 157.988281 C 129.492188 155.996094 129.003906 150.996094 125 147.5 C 123.320312 146.09375 119.84375 145.371094 116.5625 144.882812 C 116.601562 143.203125 116.699219 141.523438 117.011719 140 C 117.5 136.992188 118.496094 135.488281 119.511719 132.988281 C 120 131.503906 120.996094 129.511719 122.011719 127.011719 C 126.503906 113.007812 125.488281 94.492188 122.988281 82.988281 C 122.5 81.992188 120.488281 74.003906 113.496094 69.511719 C 105.996094 65 97.988281 67.5 93.496094 69.003906 C 91.640625 69.511719 89.804688 70.3125 87.96875 71.25 C 88.28125 69.160156 88.554688 67.050781 89.003906 65 C 90.996094 55 93.007812 46.503906 99.511719 38.007812 C 106.503906 29.492188 114.492188 24.003906 123.496094 22.5 C 125.878906 22.128906 128.164062 21.992188 130.332031 22.050781 Z M 68.59375 22.929688 C 69.765625 22.910156 70.761719 22.929688 71.503906 23.007812 C 79.316406 23.417969 86.796875 25.253906 94.21875 28.378906 C 93.300781 29.394531 92.382812 30.410156 91.503906 31.503906 C 83.007812 41.503906 80.996094 51.992188 79.003906 62.5 C 76.503906 75 75.996094 87.988281 77.988281 100.996094 L 77.011719 110.488281 C 76.503906 115.488281 75.488281 125 80.996094 135 C 82.929688 138.320312 85.058594 141.132812 87.402344 143.535156 C 82.324219 150.253906 76.933594 156.601562 71.503906 162.5 C 68.496094 165.996094 65.996094 168.496094 64.003906 168.496094 C 63.496094 168.496094 61.503906 167.5 58.496094 164.003906 C 52.988281 158.007812 50.996094 151.503906 50 149.003906 C 44.003906 130.996094 40.507812 119.492188 40 117.988281 C 35.996094 101.992188 34.003906 94.003906 31.992188 82.5 C 29.492188 66.503906 29.492188 58.496094 30.996094 52.011719 C 32.5 45 35 39.492188 37.5 35.507812 C 43.632812 25.878906 60.46875 23.144531 68.59375 22.929688 Z M 183.320312 75.625 C 184.921875 75.625 186.660156 75.820312 188.496094 76.210938 C 188.4375 80.878906 186.503906 95.527344 186.503906 97.5 C 186.503906 101.503906 187.5 109.492188 187.5 112.5 C 188.007812 118.007812 188.007812 120.996094 187.5 125 C 187.5 125 186.757812 128.574219 185.996094 131.113281 C 183.671875 125.859375 181.09375 119.589844 177.988281 112.5 C 170.488281 95.507812 170 92.011719 170 89.511719 C 170 85.996094 170 81.503906 172.988281 79.511719 C 175.800781 77.011719 179.21875 75.664062 183.320312 75.625 Z M 105.703125 77.089844 C 106.699219 77.207031 107.617188 77.5 108.496094 77.988281 C 112.5 80 113.496094 85 113.496094 85 C 115.996094 95.996094 116.992188 112.5 112.988281 123.496094 C 112.5 125.488281 111.503906 126.992188 110.996094 128.496094 C 110 130.996094 109.003906 133.496094 107.988281 137.988281 C 107.734375 139.84375 107.617188 141.679688 107.558594 143.515625 C 104.101562 142.792969 100.839844 141.5625 98.496094 140 C 94.492188 138.007812 91.503906 134.492188 89.511719 130.488281 C 85.996094 122.988281 86.503906 115.996094 87.011719 112.011719 L 87.988281 100.488281 C 87.285156 94.863281 86.953125 89.21875 87.03125 83.613281 C 89.335938 81.640625 92.34375 79.628906 96.503906 78.496094 C 99.511719 77.753906 102.792969 76.71875 105.703125 77.089844 Z M 179.433594 80.449219 C 178.125 80.507812 176.738281 80.742188 175.996094 80.996094 C 174.003906 81.503906 173.496094 81.503906 172.988281 82.5 C 172.5 83.496094 174.003906 85 174.511719 85.996094 C 175 85.996094 176.503906 87.5 178.496094 87.011719 C 180 86.503906 180.996094 85.507812 181.503906 85 C 182.011719 84.492188 184.003906 81.992188 182.5 80.996094 C 181.992188 80.488281 180.742188 80.371094 179.433594 80.449219 Z M 104.570312 84.082031 C 104.023438 84.121094 103.496094 84.257812 102.988281 84.511719 C 102.5 84.511719 101.503906 85 100.996094 85.996094 C 100.488281 86.992188 100.996094 87.988281 101.503906 88.496094 C 102.5 90 104.003906 91.503906 106.503906 91.503906 C 107.011719 91.503906 109.003906 91.503906 110.488281 90 C 110.488281 90 112.011719 88.496094 112.011719 87.011719 C 111.503906 85.996094 110.507812 85.507812 109.003906 85 C 107.871094 84.628906 106.191406 83.964844 104.570312 84.082031 Z M 95.371094 149.511719 C 98.4375 151.152344 102.128906 152.480469 106.171875 153.398438 C 105.097656 155.546875 103.554688 157.324219 102.011719 158.496094 C 98.496094 160.996094 94.003906 162.5 89.511719 163.496094 C 88.496094 163.496094 88.007812 164.003906 87.011719 164.003906 C 84.589844 164.6875 82.246094 165.449219 80.644531 167.109375 C 85.546875 161.660156 90.46875 155.644531 95.371094 149.511719 Z M 191.777344 153.515625 C 193.964844 155.15625 196.113281 156.367188 197.988281 157.011719 C 200.996094 158.007812 203.496094 158.007812 212.5 157.011719 C 210.996094 158.496094 206.503906 160.996094 200 162.011719 C 195.820312 162.421875 190.625 161.425781 186.40625 160.214844 C 186.796875 157.382812 187.246094 155.761719 187.988281 155 C 188.261719 154.746094 189.921875 154.238281 191.777344 153.515625 Z M 116.484375 155.019531 C 117.519531 155.195312 118.339844 155.332031 118.496094 155.488281 C 119.492188 156.503906 120 159.003906 120 160 C 120.058594 160.859375 120.097656 163.027344 120.136719 164.53125 C 116.015625 169.355469 109.394531 172.03125 107.988281 172.5 C 105.996094 173.496094 100 174.492188 94.003906 172.5 C 99.003906 170.996094 104.003906 169.511719 107.988281 166.503906 C 111.484375 164.003906 114.492188 160.019531 116.484375 155.019531 Z M 116.484375 155.019531 "/>
</g>
</svg>
