<?xml version="1.0" encoding="UTF-8"?>
<svg xmlns="http://www.w3.org/2000/svg" xmlns:xlink="http://www.w3.org/1999/xlink" viewBox="0 0 250 250" width="250px" height="250px">
<g id="surface136469119">
<path style=" stroke:none;fill-rule:nonzero;fill:rgb(26.274511%,7.843138%,34.117648%);fill-opacity:1;" d="M 145.859375 30.039062 C 118.882812 30.050781 91.902344 29.988281 64.914062 30.066406 C 55.671875 30.09375 48.453125 31.3125 42.929688 35.703125 C 37.40625 40.09375 34.59375 46.851562 32.5 55.878906 C 22.046875 100.949219 11.679688 146.046875 1.367188 191.152344 C -0.664062 200.015625 -0.882812 207.441406 3.554688 212.921875 C 7.992188 218.398438 15.328125 219.839844 24.707031 219.875 C 78.679688 220.054688 132.652344 220.03125 186.621094 219.875 C 194.964844 219.847656 201.988281 218.195312 207.382812 213.984375 C 212.777344 209.773438 216.011719 203.375 217.824219 195.441406 C 228.316406 149.421875 238.671875 103.363281 248.800781 57.257812 C 250.648438 48.824219 250.789062 41.777344 246.542969 36.582031 C 242.296875 31.386719 235.398438 30.09375 226.828125 30.058594 C 199.816406 29.949219 172.832031 30.027344 145.859375 30.039062 Z M 145.871094 40.039062 C 172.859375 40.027344 199.824219 39.949219 226.785156 40.058594 C 234.253906 40.089844 237.640625 41.492188 238.796875 42.910156 C 239.957031 44.328125 240.636719 47.808594 239.03125 55.117188 C 228.914062 101.1875 218.554688 147.226562 208.066406 193.222656 C 206.558594 199.820312 204.324219 203.679688 201.230469 206.09375 C 198.136719 208.507812 193.648438 209.851562 186.589844 209.871094 C 132.640625 210.03125 78.683594 210.054688 24.738281 209.871094 C 16.476562 209.84375 12.671875 208.289062 11.328125 206.628906 C 9.984375 204.972656 9.347656 201.125 11.125 193.378906 C 21.433594 148.28125 31.789062 103.195312 42.238281 58.132812 C 44.125 49.984375 46.289062 45.808594 49.152344 43.535156 C 52.011719 41.261719 56.589844 40.09375 64.941406 40.066406 C 91.898438 39.988281 118.875 40.050781 145.871094 40.039062 Z M 96.347656 55.03125 C 93.175781 54.792969 89.925781 56.113281 86.660156 59.015625 C 80.046875 64.882812 81.804688 70.65625 87.3125 76.601562 C 99.347656 89.597656 110.476562 102.308594 122.625 115.949219 C 124.710938 118.273438 127.242188 121.175781 130.28125 124.609375 C 127.972656 126.335938 124.320312 129.148438 121.582031 131.183594 C 101.925781 145.816406 82.1875 160.347656 62.414062 174.8125 C 56.882812 178.859375 51.957031 183.15625 57.285156 190.378906 C 62.121094 196.929688 67.828125 195.820312 73.808594 191.386719 C 100.421875 171.660156 127.0625 151.964844 153.859375 132.488281 C 160.835938 127.414062 162.316406 122.761719 155.976562 115.917969 C 139 97.589844 122.316406 78.984375 105.617188 60.398438 C 102.617188 57.0625 99.519531 55.265625 96.347656 55.027344 Z M 113.75 170 C 108.125 170 105 175 105 180 C 105 185 108.125 190 113.75 190 L 161.25 190 C 166.875 190 170 185 170 180 C 170 175 166.875 170 161.25 170 Z M 113.75 170 "/>
</g>
</svg>
