<?xml version="1.0" encoding="UTF-8"?>
<svg xmlns="http://www.w3.org/2000/svg" xmlns:xlink="http://www.w3.org/1999/xlink" viewBox="0 0 250 250" width="250px" height="250px">
<g id="surface136675701">
<path style=" stroke:none;fill-rule:evenodd;fill:rgb(49.803922%,29.019609%,59.215689%);fill-opacity:1;" d="M 201.71875 9.804688 L 189.296875 12.089844 L 205.9375 103.125 L 215.859375 101.621094 Z M 145.3125 33.320312 L 135.507812 40.390625 L 186.503906 115.175781 L 195.234375 108.984375 Z M 101.757812 77.539062 L 95.566406 88.515625 L 172.5 135 L 178.320312 125.019531 Z M 80.820312 125.859375 L 78.144531 137.011719 L 166.796875 159.472656 L 170 149.609375 Z M 45 145 L 45 239.921875 L 194.511719 240 L 194.511719 239.921875 C 194.667969 239.921875 195 145 195 145 L 185 145 L 185 230 L 55 230 L 55 145 Z M 75.859375 166.875 L 74.511719 176.699219 L 165 185 L 166.015625 175.175781 Z M 75 200 L 75 210 L 165 209.648438 L 165 200 Z M 75 200 "/>
</g>
</svg>
