<?xml version="1.0" encoding="UTF-8"?>
<svg xmlns="http://www.w3.org/2000/svg" xmlns:xlink="http://www.w3.org/1999/xlink" viewBox="0 0 250 250" width="250px" height="250px">
<g id="surface142257840">
<path style=" stroke:none;fill-rule:nonzero;fill:rgb(49.803922%,29.019609%,59.215689%);fill-opacity:1;" d="M 72.5 15 C 40.804688 15 15 40.804688 15 72.5 L 15 177.5 C 15 209.195312 40.804688 235 72.5 235 L 177.5 235 C 209.195312 235 235 209.195312 235 177.5 L 235 72.5 C 235 40.804688 209.195312 15 177.5 15 Z M 72.5 25 L 177.5 25 C 203.792969 25 225 46.207031 225 72.5 L 225 177.5 C 225 203.792969 203.792969 225 177.5 225 L 72.5 225 C 46.207031 225 25 203.792969 25 177.5 L 25 72.5 C 25 46.207031 46.207031 25 72.5 25 Z M 140.019531 45 C 138.0625 44.992188 136.28125 46.128906 135.460938 47.90625 C 134.640625 49.683594 134.933594 51.777344 136.210938 53.261719 C 136.210938 53.261719 154.554688 74.953125 154.992188 102.578125 C 155.074219 107.796875 153.246094 114.722656 151.589844 121.230469 C 142.296875 114.542969 101.195312 84.761719 78.585938 61.511719 C 76.769531 59.648438 73.824219 59.488281 71.816406 61.144531 C 69.808594 62.804688 69.410156 65.726562 70.898438 67.859375 C 70.898438 67.859375 79.058594 79.546875 88.683594 92.46875 C 90.5 94.910156 91.957031 96.191406 93.808594 98.632812 C 84.082031 91.757812 74.679688 85.398438 58.273438 71.21875 C 56.328125 69.550781 53.4375 69.621094 51.578125 71.382812 C 49.714844 73.140625 49.484375 76.023438 51.046875 78.054688 C 51.046875 78.054688 63.796875 94.578125 79.621094 112.910156 C 93.394531 128.875 108.617188 144.792969 121.484375 154.304688 C 116.953125 156.90625 109.890625 159.988281 97.5 159.988281 C 83.578125 159.996094 64.761719 155.515625 42.773438 140.839844 C 40.875 139.574219 38.363281 139.753906 36.667969 141.273438 C 34.96875 142.792969 34.511719 145.269531 35.558594 147.292969 C 35.558594 147.292969 63.089844 199.996094 125.625 200 C 139.914062 200 150.148438 196.148438 157.980469 192.519531 C 165.808594 188.890625 171.085938 185.964844 175.996094 185.964844 C 186.445312 185.964844 193.761719 197.527344 193.761719 197.527344 C 194.722656 199.175781 196.539062 200.132812 198.441406 199.992188 C 200.34375 199.855469 202 198.644531 202.714844 196.875 C 207.574219 184.832031 203.628906 172.550781 199.015625 163.621094 C 195.253906 156.351562 192.128906 153.074219 190.597656 151.300781 C 192.121094 148.03125 194.996094 141.03125 195 129.375 C 195.003906 107.910156 185.636719 75.417969 142.84375 45.886719 C 142.011719 45.316406 141.027344 45.003906 140.019531 45 Z M 158.007812 71.867188 C 179.785156 93.75 185.003906 114.632812 185 129.375 C 184.996094 141.96875 180.664062 149.382812 180.664062 149.382812 C 179.582031 151.273438 179.84375 153.648438 181.316406 155.253906 C 181.316406 155.253906 186.183594 160.597656 190.125 168.222656 C 192.523438 172.859375 193.855469 178.058594 194.246094 183.261719 C 189.84375 179.511719 183.875 175.964844 175.996094 175.964844 C 167.578125 175.964844 161.085938 180.058594 153.769531 183.445312 C 146.453125 186.835938 138.171875 190 125.625 190 C 92.300781 189.996094 71.339844 174.246094 58.71875 160.808594 C 73.34375 167.257812 86.570312 169.992188 97.5 169.992188 C 119.886719 169.984375 133.242188 158.808594 133.242188 158.808594 C 134.472656 157.761719 135.121094 156.179688 134.980469 154.570312 C 134.84375 152.957031 133.933594 151.515625 132.539062 150.691406 C 122.347656 144.691406 104.164062 125.773438 88.855469 108.183594 C 93.148438 111.253906 97.933594 114.796875 101.171875 116.882812 C 111.808594 123.753906 117.253906 125.925781 117.253906 125.925781 C 119.535156 126.8125 122.117188 125.917969 123.363281 123.8125 C 124.609375 121.710938 124.152344 119.015625 122.285156 117.441406 C 119.902344 115.441406 113.796875 107.273438 108.875 101.230469 C 131.085938 118.984375 152.109375 134.082031 152.109375 134.082031 C 153.386719 134.984375 155.015625 135.238281 156.507812 134.765625 C 158 134.289062 159.183594 133.144531 159.707031 131.667969 C 163.042969 122.289062 165.132812 111.402344 164.988281 102.421875 C 164.804688 90.648438 161.636719 80.636719 158.007812 71.863281 Z M 158.007812 71.867188 "/>
</g>
</svg>
