<?xml version="1.0" encoding="UTF-8"?>
<svg xmlns="http://www.w3.org/2000/svg" xmlns:xlink="http://www.w3.org/1999/xlink" viewBox="0 0 250 250" width="250px" height="250px">
<g id="surface136464220">
<path style=" stroke:none;fill-rule:nonzero;fill:rgb(49.803922%,29.019609%,59.215689%);fill-opacity:1;" d="M 177.5 10 C 174.328125 10 171.371094 11.207031 169.160156 13.191406 C 169.128906 13.222656 168.699219 13.648438 168.535156 13.828125 C 168.367188 14.011719 168.148438 14.273438 167.851562 14.597656 C 167.261719 15.253906 166.40625 16.195312 165.332031 17.390625 C 163.1875 19.785156 160.148438 23.183594 156.511719 27.246094 C 149.242188 35.371094 139.585938 46.167969 129.941406 56.953125 L 94.597656 96.484375 C 85.796875 89.335938 75.964844 81.355469 68.945312 75.652344 C 62.285156 70.246094 56.722656 65.726562 52.804688 62.539062 C 50.84375 60.945312 49.292969 59.679688 48.222656 58.808594 C 47.6875 58.375 47.273438 58.035156 46.992188 57.800781 C 46.871094 57.703125 46.777344 57.636719 46.710938 57.578125 L 46.699219 57.566406 L 46.691406 57.566406 C 44.929688 55.988281 42.554688 55 40 55 C 38.054688 55 37.53125 55.394531 36.542969 55.75 C 35.554688 56.109375 34.480469 56.5625 33.300781 57.089844 C 30.941406 58.140625 28.191406 59.496094 25.527344 60.839844 C 20.199219 63.53125 15.246094 66.199219 15.246094 66.199219 L 15.273438 66.257812 C 12.164062 67.96875 10 71.246094 10 75 L 10 180 C 10 183.917969 12.351562 187.332031 15.683594 188.964844 L 15.664062 189.003906 C 15.664062 189.003906 20.257812 191.34375 25.089844 193.777344 C 27.503906 194.996094 29.984375 196.238281 31.984375 197.226562 C 33.980469 198.214844 35.097656 198.800781 36.25 199.265625 C 37.402344 199.734375 38.683594 200 40 200 C 41.761719 200 43.460938 199.519531 44.921875 198.691406 L 44.933594 198.699219 C 44.933594 198.699219 45.390625 198.402344 45.449219 198.359375 C 45.507812 198.316406 45.542969 198.300781 45.566406 198.28125 C 45.617188 198.242188 45.636719 198.214844 45.664062 198.191406 C 45.71875 198.148438 45.769531 198.117188 45.832031 198.066406 C 45.953125 197.96875 46.113281 197.835938 46.320312 197.664062 C 46.726562 197.328125 47.308594 196.84375 48.046875 196.230469 C 49.519531 195.003906 51.601562 193.257812 54.101562 191.171875 C 59.097656 186.996094 65.734375 181.445312 72.363281 175.898438 C 83.828125 166.304688 92.378906 159.144531 95.265625 156.726562 C 113.371094 176.378906 131.492188 196.050781 145.148438 210.859375 C 152.15625 218.460938 158.027344 224.824219 162.167969 229.304688 C 164.238281 231.546875 165.878906 233.320312 167.023438 234.550781 C 167.59375 235.164062 168.03125 235.648438 168.351562 235.984375 C 168.507812 236.15625 168.640625 236.28125 168.742188 236.386719 C 168.839844 236.492188 168.527344 236.242188 169.179688 236.824219 L 169.191406 236.835938 C 171.394531 238.796875 174.339844 240 177.5 240 C 179.355469 240 181.105469 239.558594 182.695312 238.816406 L 182.714844 238.855469 C 182.714844 238.855469 194.742188 232.636719 206.945312 226.308594 C 213.046875 223.144531 219.191406 219.953125 223.90625 217.5 C 226.265625 216.273438 228.265625 215.226562 229.726562 214.460938 C 231.1875 213.699219 231.773438 213.410156 232.441406 213.027344 C 236.960938 210.441406 240 205.539062 240 200 L 240 50 C 240 44.859375 237.378906 40.261719 233.390625 37.566406 C 232.710938 37.109375 232.640625 37.113281 232.167969 36.855469 C 231.695312 36.597656 231.078125 36.265625 230.332031 35.867188 C 228.835938 35.074219 226.808594 34.003906 224.425781 32.753906 C 219.652344 30.257812 213.453125 27.035156 207.304688 23.847656 C 195.007812 17.472656 182.925781 11.242188 182.921875 11.238281 L 182.910156 11.238281 C 181.265625 10.453125 179.417969 10 177.5 10 Z M 177.5 20 C 178.046875 20 178.492188 20.144531 178.898438 20.417969 C 179.570312 20.875 180 21.597656 180 22.5 L 180 72.664062 L 123.542969 119.988281 C 120.609375 117.605469 120.59375 117.597656 117.636719 115.195312 C 112.097656 110.699219 107.78125 107.195312 102.375 102.800781 C 105.402344 99.414062 119.855469 83.226562 137.394531 63.613281 C 147.035156 52.828125 156.695312 42.027344 163.964844 33.90625 C 167.601562 29.84375 170.640625 26.460938 172.78125 24.070312 C 173.855469 22.878906 174.691406 21.933594 175.273438 21.289062 C 175.535156 20.996094 175.730469 20.777344 175.878906 20.613281 C 176.3125 20.238281 176.847656 20 177.5 20 Z M 190 26.160156 C 194.613281 28.542969 196.300781 29.40625 202.707031 32.722656 C 208.847656 35.910156 215.046875 39.136719 219.796875 41.621094 C 222.167969 42.863281 224.179688 43.921875 225.636719 44.695312 C 226.363281 45.085938 226.953125 45.398438 227.363281 45.625 C 227.773438 45.851562 228.261719 46.175781 227.78125 45.847656 L 227.792969 45.847656 L 227.792969 45.859375 C 229.121094 46.757812 230 48.242188 230 50 L 230 200 C 230 201.902344 228.980469 203.484375 227.46875 204.34375 C 227.773438 204.171875 226.535156 204.847656 225.089844 205.605469 C 223.640625 206.363281 221.652344 207.398438 219.296875 208.621094 C 214.589844 211.070312 208.433594 214.269531 202.335938 217.433594 C 196.117188 220.65625 194.554688 221.460938 190 223.816406 Z M 40.136719 65.117188 C 40.175781 65.148438 40.265625 65.222656 40.3125 65.265625 C 40.398438 65.335938 40.507812 65.425781 40.65625 65.546875 C 40.945312 65.785156 41.367188 66.125 41.90625 66.5625 C 42.976562 67.4375 44.523438 68.699219 46.484375 70.292969 C 50.410156 73.484375 55.976562 78.007812 62.636719 83.417969 C 75.957031 94.238281 93.664062 108.609375 111.339844 122.960938 C 145.710938 150.863281 178.128906 177.175781 180 178.691406 L 180 227.5 C 180 228.464844 179.492188 229.230469 178.742188 229.648438 C 178.730469 229.652344 178.390625 229.832031 178.390625 229.835938 C 178.113281 229.933594 177.820312 230 177.5 230 C 176.839844 230 176.3125 229.769531 175.871094 229.382812 C 175.804688 229.316406 175.75 229.253906 175.65625 229.152344 C 175.355469 228.832031 174.910156 228.355469 174.347656 227.746094 C 173.214844 226.523438 171.582031 224.757812 169.511719 222.519531 C 165.375 218.042969 159.507812 211.683594 152.5 204.082031 C 138.480469 188.878906 119.871094 168.6875 101.28125 148.507812 C 82.6875 128.324219 64.113281 108.160156 50.15625 93.019531 C 43.179688 85.445312 37.355469 79.132812 33.261719 74.699219 C 31.492188 72.78125 30.210938 71.398438 29.132812 70.234375 C 29.585938 70.003906 29.566406 70 30.03125 69.765625 C 32.613281 68.460938 35.277344 67.15625 37.375 66.222656 C 38.421875 65.753906 39.339844 65.378906 39.953125 65.15625 C 40.03125 65.128906 40.058594 65.136719 40.136719 65.117188 Z M 20 75.089844 C 20.28125 75.390625 20.652344 75.785156 21.152344 76.328125 C 22.257812 77.523438 23.871094 79.257812 25.917969 81.476562 C 28.117188 83.859375 31.890625 87.953125 35 91.328125 L 35 163.203125 L 20.019531 179.972656 C 20.011719 179.988281 20.007812 180 20 180 Z M 180 85.714844 L 180 165.808594 C 174.664062 161.480469 154.808594 145.363281 131.457031 126.40625 Z M 45 102.179688 C 51.339844 109.058594 59.925781 118.382812 67.597656 126.710938 L 45 152 Z M 74.40625 134.09375 C 79.335938 139.445312 83.371094 143.835938 88.476562 149.375 C 85.367188 151.980469 77.222656 158.796875 65.945312 168.230469 C 59.320312 173.777344 52.6875 179.324219 47.695312 183.496094 C 45.199219 185.582031 43.117188 187.324219 41.652344 188.542969 C 40.917969 189.15625 40.335938 189.636719 39.941406 189.960938 L 39.933594 189.96875 C 40.089844 190.03125 38.339844 189.214844 36.417969 188.261719 C 34.457031 187.289062 31.996094 186.066406 29.589844 184.851562 C 29.40625 184.761719 29.414062 184.761719 29.230469 184.667969 Z M 40.050781 189.96875 L 42.355469 194.089844 L 39.992188 190.007812 L 40 190 C 40.007812 189.996094 40.050781 189.96875 40.050781 189.96875 Z M 40.050781 189.96875 "/>
</g>
</svg>
